G75*
%MOIN*%
%OFA0B0*%
%FSLAX24Y24*%
%IPPOS*%
%LPD*%
%AMOC8*
5,1,8,0,0,1.08239X$1,22.5*
%
%ADD10C,0.0000*%
%ADD11C,0.0060*%
%ADD12C,0.0080*%
%ADD13C,0.0100*%
%ADD14C,0.0050*%
%ADD15R,0.0330X0.0080*%
%ADD16C,0.0040*%
%ADD17R,0.0197X0.0374*%
%ADD18R,0.0374X0.0197*%
%ADD19R,0.0200X0.0450*%
%ADD20R,0.0450X0.0200*%
%ADD21R,0.0157X0.0496*%
%ADD22C,0.0059*%
%ADD23C,0.0160*%
%ADD24R,0.0394X0.0098*%
D10*
X000166Y000100D02*
X000166Y010300D01*
X022366Y010300D01*
X022366Y000100D01*
X000166Y000100D01*
D11*
X000723Y001330D02*
X000636Y001417D01*
X000896Y001417D01*
X000896Y001503D02*
X000896Y001330D01*
X001636Y001373D02*
X001679Y001330D01*
X001636Y001373D02*
X001636Y001460D01*
X001679Y001503D01*
X001723Y001503D01*
X001896Y001330D01*
X001896Y001503D01*
X002636Y001460D02*
X002636Y001373D01*
X002679Y001330D01*
X002766Y001417D02*
X002766Y001460D01*
X002809Y001503D01*
X002853Y001503D01*
X002896Y001460D01*
X002896Y001373D01*
X002853Y001330D01*
X002766Y001460D02*
X002723Y001503D01*
X002679Y001503D01*
X002636Y001460D01*
X003636Y001460D02*
X003766Y001330D01*
X003766Y001503D01*
X003896Y001460D02*
X003636Y001460D01*
X004636Y001503D02*
X004636Y001330D01*
X004766Y001330D01*
X004723Y001417D01*
X004723Y001460D01*
X004766Y001503D01*
X004853Y001503D01*
X004896Y001460D01*
X004896Y001373D01*
X004853Y001330D01*
X005636Y001503D02*
X005679Y001417D01*
X005766Y001330D01*
X005766Y001460D01*
X005809Y001503D01*
X005853Y001503D01*
X005896Y001460D01*
X005896Y001373D01*
X005853Y001330D01*
X005766Y001330D01*
X006636Y001330D02*
X006636Y001503D01*
X006679Y001503D01*
X006853Y001330D01*
X006896Y001330D01*
X007636Y001373D02*
X007636Y001460D01*
X007679Y001503D01*
X007723Y001503D01*
X007766Y001460D01*
X007766Y001373D01*
X007723Y001330D01*
X007679Y001330D01*
X007636Y001373D01*
X007766Y001373D02*
X007809Y001330D01*
X007853Y001330D01*
X007896Y001373D01*
X007896Y001460D01*
X007853Y001503D01*
X007809Y001503D01*
X007766Y001460D01*
X007706Y001660D02*
X007826Y001660D01*
X007826Y001940D02*
X007706Y001940D01*
X007706Y002310D02*
X007826Y002310D01*
X007826Y002590D02*
X007706Y002590D01*
X009026Y001860D02*
X009026Y001740D01*
X009306Y001740D02*
X009306Y001860D01*
X009636Y001755D02*
X009679Y001798D01*
X009853Y001625D01*
X009896Y001668D01*
X009896Y001755D01*
X009853Y001798D01*
X009679Y001798D01*
X009636Y001755D02*
X009636Y001668D01*
X009679Y001625D01*
X009853Y001625D01*
X009896Y001503D02*
X009896Y001330D01*
X009896Y001417D02*
X009636Y001417D01*
X009723Y001330D01*
X010126Y001730D02*
X010126Y001850D01*
X010406Y001850D02*
X010406Y001730D01*
X010636Y001711D02*
X010723Y001625D01*
X010636Y001711D02*
X010896Y001711D01*
X010896Y001625D02*
X010896Y001798D01*
X011506Y002010D02*
X011626Y002010D01*
X011679Y001798D02*
X011636Y001755D01*
X011636Y001668D01*
X011679Y001625D01*
X011723Y001798D02*
X011896Y001625D01*
X011896Y001798D01*
X011723Y001798D02*
X011679Y001798D01*
X011896Y001503D02*
X011896Y001330D01*
X011896Y001417D02*
X011636Y001417D01*
X011723Y001330D01*
X010896Y001330D02*
X010896Y001503D01*
X010896Y001417D02*
X010636Y001417D01*
X010723Y001330D01*
X008896Y001373D02*
X008853Y001330D01*
X008896Y001373D02*
X008896Y001460D01*
X008853Y001503D01*
X008679Y001503D01*
X008636Y001460D01*
X008636Y001373D01*
X008679Y001330D01*
X008723Y001330D01*
X008766Y001373D01*
X008766Y001503D01*
X011506Y002290D02*
X011626Y002290D01*
X012616Y002270D02*
X012736Y002270D01*
X012736Y001990D02*
X012616Y001990D01*
X012679Y001798D02*
X012723Y001798D01*
X012766Y001755D01*
X012809Y001798D01*
X012853Y001798D01*
X012896Y001755D01*
X012896Y001668D01*
X012853Y001625D01*
X012766Y001711D02*
X012766Y001755D01*
X012679Y001798D02*
X012636Y001755D01*
X012636Y001668D01*
X012679Y001625D01*
X012896Y001503D02*
X012896Y001330D01*
X012896Y001417D02*
X012636Y001417D01*
X012723Y001330D01*
X013636Y001417D02*
X013723Y001330D01*
X013636Y001417D02*
X013896Y001417D01*
X013896Y001503D02*
X013896Y001330D01*
X013766Y001625D02*
X013766Y001798D01*
X013896Y001755D02*
X013636Y001755D01*
X013766Y001625D01*
X014636Y001625D02*
X014766Y001625D01*
X014723Y001711D01*
X014723Y001755D01*
X014766Y001798D01*
X014853Y001798D01*
X014896Y001755D01*
X014896Y001668D01*
X014853Y001625D01*
X014896Y001503D02*
X014896Y001330D01*
X014896Y001417D02*
X014636Y001417D01*
X014723Y001330D01*
X014636Y001625D02*
X014636Y001798D01*
X015426Y002340D02*
X015426Y002460D01*
X015706Y002460D02*
X015706Y002340D01*
X014826Y002440D02*
X014706Y002440D01*
X014706Y002720D02*
X014826Y002720D01*
X014826Y002910D02*
X014706Y002910D01*
X014706Y003190D02*
X014826Y003190D01*
X014346Y003870D02*
X014346Y003990D01*
X014066Y003990D02*
X014066Y003870D01*
X014446Y004530D02*
X014566Y004530D01*
X014566Y004810D02*
X014446Y004810D01*
X014616Y005290D02*
X014736Y005290D01*
X014736Y005570D02*
X014616Y005570D01*
X015636Y005690D02*
X015756Y005690D01*
X015756Y005410D02*
X015636Y005410D01*
X016147Y004717D02*
X016149Y004743D01*
X016155Y004769D01*
X016164Y004793D01*
X016177Y004816D01*
X016193Y004837D01*
X016212Y004855D01*
X016233Y004871D01*
X016257Y004883D01*
X016281Y004891D01*
X016307Y004896D01*
X016334Y004897D01*
X016360Y004894D01*
X016385Y004887D01*
X016409Y004877D01*
X016432Y004863D01*
X016452Y004847D01*
X016469Y004827D01*
X016484Y004805D01*
X016495Y004781D01*
X016503Y004756D01*
X016507Y004730D01*
X016507Y004704D01*
X016503Y004678D01*
X016495Y004653D01*
X016484Y004629D01*
X016469Y004607D01*
X016452Y004587D01*
X016432Y004571D01*
X016409Y004557D01*
X016385Y004547D01*
X016360Y004540D01*
X016334Y004537D01*
X016307Y004538D01*
X016281Y004543D01*
X016257Y004551D01*
X016233Y004563D01*
X016212Y004579D01*
X016193Y004597D01*
X016177Y004618D01*
X016164Y004641D01*
X016155Y004665D01*
X016149Y004691D01*
X016147Y004717D01*
X017326Y005740D02*
X017326Y005860D01*
X017606Y005860D02*
X017606Y005740D01*
X017876Y005740D02*
X017876Y005860D01*
X018156Y005860D02*
X018156Y005740D01*
X020006Y004690D02*
X020126Y004690D01*
X020126Y004410D02*
X020006Y004410D01*
X020676Y004310D02*
X020676Y004190D01*
X020956Y004190D02*
X020956Y004310D01*
X021656Y004270D02*
X021776Y004270D01*
X021776Y003990D02*
X021656Y003990D01*
X018756Y003490D02*
X018756Y003370D01*
X018476Y003370D02*
X018476Y003490D01*
X017576Y002760D02*
X017456Y002760D01*
X017456Y002480D02*
X017576Y002480D01*
X017576Y002270D02*
X017456Y002270D01*
X017456Y001990D02*
X017576Y001990D01*
X017679Y001798D02*
X017723Y001798D01*
X017766Y001755D01*
X017766Y001668D01*
X017723Y001625D01*
X017679Y001625D01*
X017636Y001668D01*
X017636Y001755D01*
X017679Y001798D01*
X017766Y001755D02*
X017809Y001798D01*
X017853Y001798D01*
X017896Y001755D01*
X017896Y001668D01*
X017853Y001625D01*
X017809Y001625D01*
X017766Y001668D01*
X017896Y001503D02*
X017896Y001330D01*
X017896Y001417D02*
X017636Y001417D01*
X017723Y001330D01*
X016896Y001330D02*
X016896Y001503D01*
X016896Y001417D02*
X016636Y001417D01*
X016723Y001330D01*
X016636Y001625D02*
X016636Y001798D01*
X016679Y001798D01*
X016853Y001625D01*
X016896Y001625D01*
X015886Y001668D02*
X015843Y001625D01*
X015756Y001625D01*
X015756Y001755D01*
X015799Y001798D01*
X015843Y001798D01*
X015886Y001755D01*
X015886Y001668D01*
X015756Y001625D02*
X015669Y001711D01*
X015626Y001798D01*
X015886Y001503D02*
X015886Y001330D01*
X015886Y001417D02*
X015626Y001417D01*
X015713Y001330D01*
X018626Y001417D02*
X018713Y001330D01*
X018626Y001417D02*
X018886Y001417D01*
X018886Y001503D02*
X018886Y001330D01*
X018843Y001625D02*
X018886Y001668D01*
X018886Y001755D01*
X018843Y001798D01*
X018669Y001798D01*
X018626Y001755D01*
X018626Y001668D01*
X018669Y001625D01*
X018713Y001625D01*
X018756Y001668D01*
X018756Y001798D01*
X020406Y001711D02*
X020493Y001625D01*
X020493Y001503D02*
X020449Y001503D01*
X020406Y001460D01*
X020406Y001373D01*
X020449Y001330D01*
X020493Y001503D02*
X020666Y001330D01*
X020666Y001503D01*
X020666Y001625D02*
X020666Y001798D01*
X020666Y001711D02*
X020406Y001711D01*
X020836Y001970D02*
X020956Y001970D01*
X020956Y002250D02*
X020836Y002250D01*
X021566Y001685D02*
X021566Y001598D01*
X021609Y001555D01*
X021609Y001433D02*
X021566Y001390D01*
X021566Y001303D01*
X021609Y001260D01*
X021609Y001433D02*
X021653Y001433D01*
X021826Y001260D01*
X021826Y001433D01*
X021826Y001555D02*
X021653Y001728D01*
X021609Y001728D01*
X021566Y001685D01*
X021826Y001728D02*
X021826Y001555D01*
X021926Y002150D02*
X021926Y002270D01*
X022206Y002270D02*
X022206Y002150D01*
X020576Y005370D02*
X020456Y005370D01*
X020456Y005650D02*
X020576Y005650D01*
X017606Y007220D02*
X017606Y007340D01*
X017776Y007400D02*
X017776Y007520D01*
X018056Y007520D02*
X018056Y007400D01*
X017326Y007340D02*
X017326Y007220D01*
X018156Y008080D02*
X018276Y008080D01*
X018276Y008360D02*
X018156Y008360D01*
X017896Y008601D02*
X017723Y008774D01*
X017679Y008774D01*
X017636Y008731D01*
X017636Y008644D01*
X017679Y008601D01*
X017896Y008601D02*
X017896Y008774D01*
X017896Y008895D02*
X017853Y008895D01*
X017679Y009069D01*
X017636Y009069D01*
X017636Y008895D01*
X016896Y008939D02*
X016853Y008895D01*
X016809Y008895D01*
X016766Y008939D01*
X016766Y009025D01*
X016809Y009069D01*
X016853Y009069D01*
X016896Y009025D01*
X016896Y008939D01*
X016766Y008939D02*
X016723Y008895D01*
X016679Y008895D01*
X016636Y008939D01*
X016636Y009025D01*
X016679Y009069D01*
X016723Y009069D01*
X016766Y009025D01*
X016723Y008774D02*
X016679Y008774D01*
X016636Y008731D01*
X016636Y008644D01*
X016679Y008601D01*
X016723Y008774D02*
X016896Y008601D01*
X016896Y008774D01*
X015896Y008774D02*
X015896Y008601D01*
X015723Y008774D01*
X015679Y008774D01*
X015636Y008731D01*
X015636Y008644D01*
X015679Y008601D01*
X015679Y008895D02*
X015723Y008895D01*
X015766Y008939D01*
X015766Y009069D01*
X015853Y009069D02*
X015679Y009069D01*
X015636Y009025D01*
X015636Y008939D01*
X015679Y008895D01*
X015853Y008895D02*
X015896Y008939D01*
X015896Y009025D01*
X015853Y009069D01*
X014896Y009025D02*
X014896Y008939D01*
X014853Y008895D01*
X014679Y009069D01*
X014853Y009069D01*
X014896Y009025D01*
X014853Y008895D02*
X014679Y008895D01*
X014636Y008939D01*
X014636Y009025D01*
X014679Y009069D01*
X014679Y008774D02*
X014723Y008774D01*
X014766Y008731D01*
X014809Y008774D01*
X014853Y008774D01*
X014896Y008731D01*
X014896Y008644D01*
X014853Y008601D01*
X014766Y008687D02*
X014766Y008731D01*
X014679Y008774D02*
X014636Y008731D01*
X014636Y008644D01*
X014679Y008601D01*
X013896Y008644D02*
X013853Y008601D01*
X013896Y008644D02*
X013896Y008731D01*
X013853Y008774D01*
X013809Y008774D01*
X013766Y008731D01*
X013766Y008687D01*
X013766Y008731D02*
X013723Y008774D01*
X013679Y008774D01*
X013636Y008731D01*
X013636Y008644D01*
X013679Y008601D01*
X013723Y008895D02*
X013636Y008982D01*
X013896Y008982D01*
X013896Y008895D02*
X013896Y009069D01*
X012896Y009069D02*
X012896Y008895D01*
X012723Y009069D01*
X012679Y009069D01*
X012636Y009025D01*
X012636Y008939D01*
X012679Y008895D01*
X012679Y008774D02*
X012723Y008774D01*
X012766Y008731D01*
X012809Y008774D01*
X012853Y008774D01*
X012896Y008731D01*
X012896Y008644D01*
X012853Y008601D01*
X012766Y008687D02*
X012766Y008731D01*
X012679Y008774D02*
X012636Y008731D01*
X012636Y008644D01*
X012679Y008601D01*
X011896Y008644D02*
X011853Y008601D01*
X011896Y008644D02*
X011896Y008731D01*
X011853Y008774D01*
X011809Y008774D01*
X011766Y008731D01*
X011766Y008687D01*
X011766Y008731D02*
X011723Y008774D01*
X011679Y008774D01*
X011636Y008731D01*
X011636Y008644D01*
X011679Y008601D01*
X011679Y008895D02*
X011636Y008939D01*
X011636Y009025D01*
X011679Y009069D01*
X011723Y009069D01*
X011766Y009025D01*
X011809Y009069D01*
X011853Y009069D01*
X011896Y009025D01*
X011896Y008939D01*
X011853Y008895D01*
X011766Y008982D02*
X011766Y009025D01*
X010896Y009025D02*
X010636Y009025D01*
X010766Y008895D01*
X010766Y009069D01*
X010809Y008774D02*
X010853Y008774D01*
X010896Y008731D01*
X010896Y008644D01*
X010853Y008601D01*
X010766Y008687D02*
X010766Y008731D01*
X010809Y008774D01*
X010766Y008731D02*
X010723Y008774D01*
X010679Y008774D01*
X010636Y008731D01*
X010636Y008644D01*
X010679Y008601D01*
X009896Y008644D02*
X009853Y008601D01*
X009896Y008644D02*
X009896Y008731D01*
X009853Y008774D01*
X009809Y008774D01*
X009766Y008731D01*
X009766Y008687D01*
X009766Y008731D02*
X009723Y008774D01*
X009679Y008774D01*
X009636Y008731D01*
X009636Y008644D01*
X009679Y008601D01*
X009636Y008895D02*
X009766Y008895D01*
X009723Y008982D01*
X009723Y009025D01*
X009766Y009069D01*
X009853Y009069D01*
X009896Y009025D01*
X009896Y008939D01*
X009853Y008895D01*
X009636Y008895D02*
X009636Y009069D01*
X008896Y009025D02*
X008896Y008939D01*
X008853Y008895D01*
X008766Y008895D01*
X008766Y009025D01*
X008809Y009069D01*
X008853Y009069D01*
X008896Y009025D01*
X008766Y008895D02*
X008679Y008982D01*
X008636Y009069D01*
X008679Y008774D02*
X008723Y008774D01*
X008766Y008731D01*
X008809Y008774D01*
X008853Y008774D01*
X008896Y008731D01*
X008896Y008644D01*
X008853Y008601D01*
X008766Y008687D02*
X008766Y008731D01*
X008679Y008774D02*
X008636Y008731D01*
X008636Y008644D01*
X008679Y008601D01*
X007896Y008644D02*
X007853Y008601D01*
X007896Y008644D02*
X007896Y008731D01*
X007853Y008774D01*
X007809Y008774D01*
X007766Y008731D01*
X007766Y008687D01*
X007766Y008731D02*
X007723Y008774D01*
X007679Y008774D01*
X007636Y008731D01*
X007636Y008644D01*
X007679Y008601D01*
X007636Y008895D02*
X007636Y009069D01*
X007679Y009069D01*
X007853Y008895D01*
X007896Y008895D01*
X006896Y008939D02*
X006853Y008895D01*
X006809Y008895D01*
X006766Y008939D01*
X006766Y009025D01*
X006809Y009069D01*
X006853Y009069D01*
X006896Y009025D01*
X006896Y008939D01*
X006766Y008939D02*
X006723Y008895D01*
X006679Y008895D01*
X006636Y008939D01*
X006636Y009025D01*
X006679Y009069D01*
X006723Y009069D01*
X006766Y009025D01*
X006809Y008774D02*
X006853Y008774D01*
X006896Y008731D01*
X006896Y008644D01*
X006853Y008601D01*
X006766Y008687D02*
X006766Y008731D01*
X006809Y008774D01*
X006766Y008731D02*
X006723Y008774D01*
X006679Y008774D01*
X006636Y008731D01*
X006636Y008644D01*
X006679Y008601D01*
X005896Y008644D02*
X005853Y008601D01*
X005896Y008644D02*
X005896Y008731D01*
X005853Y008774D01*
X005809Y008774D01*
X005766Y008731D01*
X005766Y008687D01*
X005766Y008731D02*
X005723Y008774D01*
X005679Y008774D01*
X005636Y008731D01*
X005636Y008644D01*
X005679Y008601D01*
X005679Y008895D02*
X005636Y008939D01*
X005636Y009025D01*
X005679Y009069D01*
X005853Y009069D01*
X005896Y009025D01*
X005896Y008939D01*
X005853Y008895D01*
X005766Y008939D02*
X005766Y009069D01*
X005766Y008939D02*
X005723Y008895D01*
X005679Y008895D01*
X004896Y008939D02*
X004853Y008895D01*
X004679Y009069D01*
X004853Y009069D01*
X004896Y009025D01*
X004896Y008939D01*
X004853Y008895D02*
X004679Y008895D01*
X004636Y008939D01*
X004636Y009025D01*
X004679Y009069D01*
X004766Y008774D02*
X004766Y008601D01*
X004636Y008731D01*
X004896Y008731D01*
X003896Y008731D02*
X003636Y008731D01*
X003766Y008601D01*
X003766Y008774D01*
X003723Y008895D02*
X003636Y008982D01*
X003896Y008982D01*
X003896Y008895D02*
X003896Y009069D01*
X002896Y009069D02*
X002896Y008895D01*
X002723Y009069D01*
X002679Y009069D01*
X002636Y009025D01*
X002636Y008939D01*
X002679Y008895D01*
X002766Y008774D02*
X002766Y008601D01*
X002636Y008731D01*
X002896Y008731D01*
X001896Y008731D02*
X001636Y008731D01*
X001766Y008601D01*
X001766Y008774D01*
X001853Y008895D02*
X001896Y008939D01*
X001896Y009025D01*
X001853Y009069D01*
X001809Y009069D01*
X001766Y009025D01*
X001766Y008982D01*
X001766Y009025D02*
X001723Y009069D01*
X001679Y009069D01*
X001636Y009025D01*
X001636Y008939D01*
X001679Y008895D01*
X000896Y009025D02*
X000636Y009025D01*
X000766Y008895D01*
X000766Y009069D01*
X000766Y008774D02*
X000766Y008601D01*
X000636Y008731D01*
X000896Y008731D01*
X000837Y007790D02*
X000924Y007703D01*
X000924Y007617D01*
X000837Y007530D01*
X000716Y007573D02*
X000673Y007530D01*
X000586Y007530D01*
X000542Y007573D01*
X000542Y007747D01*
X000586Y007790D01*
X000673Y007790D01*
X000716Y007747D01*
X000433Y007790D02*
X000346Y007703D01*
X000346Y007617D01*
X000433Y007530D01*
X000476Y007240D02*
X000346Y007240D01*
X000346Y006980D01*
X000346Y007067D02*
X000476Y007067D01*
X000519Y007110D01*
X000519Y007197D01*
X000476Y007240D01*
X000641Y007110D02*
X000684Y007153D01*
X000771Y007153D01*
X000814Y007110D01*
X000814Y007067D01*
X000641Y007067D01*
X000641Y007110D02*
X000641Y007023D01*
X000684Y006980D01*
X000771Y006980D01*
X000935Y007153D02*
X001022Y006980D01*
X001109Y007153D01*
X001525Y007110D02*
X001655Y007110D01*
X001698Y007067D01*
X001698Y007023D01*
X001655Y006980D01*
X001525Y006980D01*
X001525Y007240D01*
X001655Y007240D01*
X001698Y007197D01*
X001698Y007153D01*
X001655Y007110D01*
X001666Y007530D02*
X001623Y007573D01*
X001796Y007747D01*
X001796Y007573D01*
X001753Y007530D01*
X001666Y007530D01*
X001623Y007573D02*
X001623Y007747D01*
X001666Y007790D01*
X001753Y007790D01*
X001796Y007747D01*
X001917Y007703D02*
X002004Y007790D01*
X002004Y007530D01*
X001917Y007530D02*
X002091Y007530D01*
X002212Y007573D02*
X002255Y007530D01*
X002342Y007530D01*
X002386Y007573D01*
X002386Y007617D01*
X002342Y007660D01*
X002299Y007660D01*
X002342Y007660D02*
X002386Y007703D01*
X002386Y007747D01*
X002342Y007790D01*
X002255Y007790D01*
X002212Y007747D01*
X002801Y007747D02*
X002801Y007703D01*
X002845Y007660D01*
X002932Y007660D01*
X002975Y007617D01*
X002975Y007573D01*
X002932Y007530D01*
X002845Y007530D01*
X002801Y007573D01*
X003096Y007573D02*
X003096Y007660D01*
X003139Y007703D01*
X003270Y007703D01*
X003434Y007703D02*
X003521Y007703D01*
X003564Y007660D01*
X003564Y007530D01*
X003434Y007530D01*
X003391Y007573D01*
X003434Y007617D01*
X003564Y007617D01*
X003685Y007703D02*
X003685Y007530D01*
X003859Y007530D02*
X003859Y007660D01*
X003815Y007703D01*
X003685Y007703D01*
X003980Y007790D02*
X004154Y007790D01*
X004067Y007790D02*
X004067Y007530D01*
X004275Y007573D02*
X004318Y007530D01*
X004405Y007530D01*
X004448Y007573D01*
X004448Y007660D01*
X004405Y007703D01*
X004318Y007703D01*
X004275Y007660D01*
X004275Y007573D01*
X004569Y007573D02*
X004613Y007530D01*
X004699Y007530D01*
X004743Y007573D01*
X004743Y007660D01*
X004699Y007703D01*
X004613Y007703D01*
X004569Y007660D01*
X004569Y007573D01*
X004864Y007530D02*
X004951Y007530D01*
X004907Y007530D02*
X004907Y007790D01*
X004864Y007790D01*
X005060Y007573D02*
X005104Y007573D01*
X005104Y007530D01*
X005060Y007530D01*
X005060Y007573D01*
X005208Y007530D02*
X005208Y007703D01*
X005338Y007703D01*
X005381Y007660D01*
X005381Y007530D01*
X005502Y007573D02*
X005502Y007660D01*
X005546Y007703D01*
X005633Y007703D01*
X005676Y007660D01*
X005676Y007617D01*
X005502Y007617D01*
X005502Y007573D02*
X005546Y007530D01*
X005633Y007530D01*
X005840Y007573D02*
X005884Y007530D01*
X005840Y007573D02*
X005840Y007747D01*
X005797Y007703D02*
X005884Y007703D01*
X006288Y007790D02*
X006288Y007530D01*
X006462Y007530D01*
X006583Y007530D02*
X006756Y007530D01*
X006877Y007573D02*
X006921Y007530D01*
X007008Y007530D01*
X007051Y007573D01*
X006877Y007573D02*
X006877Y007747D01*
X006921Y007790D01*
X007008Y007790D01*
X007051Y007747D01*
X006583Y007790D02*
X006583Y007530D01*
X006656Y007340D02*
X006776Y007340D01*
X007376Y007380D02*
X007376Y007260D01*
X007656Y007260D02*
X007656Y007380D01*
X006776Y007060D02*
X006656Y007060D01*
X006876Y006360D02*
X006876Y006240D01*
X007156Y006240D02*
X007156Y006360D01*
X007376Y006360D02*
X007376Y006240D01*
X007656Y006240D02*
X007656Y006360D01*
X005596Y005740D02*
X005476Y005740D01*
X005476Y005460D02*
X005596Y005460D01*
X004506Y005510D02*
X004386Y005510D01*
X004386Y005230D02*
X004506Y005230D01*
X004506Y004660D02*
X004386Y004660D01*
X004386Y004380D02*
X004506Y004380D01*
X003896Y003926D02*
X003573Y003926D01*
X003569Y003926D02*
X001663Y003926D01*
X001336Y003926D01*
X001336Y002670D01*
X001663Y002670D01*
X003569Y002670D01*
X003573Y002670D02*
X003896Y002670D01*
X003896Y003926D01*
X005776Y003810D02*
X005776Y003690D01*
X006056Y003690D02*
X006056Y003810D01*
X008626Y004890D02*
X008626Y005010D01*
X008906Y005010D02*
X008906Y004890D01*
X009726Y005490D02*
X009726Y005610D01*
X010006Y005610D02*
X010006Y005490D01*
X012616Y005120D02*
X012736Y005120D01*
X012736Y004840D02*
X012616Y004840D01*
X010726Y006730D02*
X010606Y006730D01*
X010606Y007010D02*
X010726Y007010D01*
X011476Y007160D02*
X011476Y007280D01*
X011756Y007280D02*
X011756Y007160D01*
X011006Y007690D02*
X011006Y007810D01*
X010726Y007810D02*
X010726Y007690D01*
X010506Y007690D02*
X010506Y007810D01*
X010226Y007810D02*
X010226Y007690D01*
X004496Y006730D02*
X004376Y006730D01*
X004376Y006450D02*
X004496Y006450D01*
X003270Y007530D02*
X003139Y007530D01*
X003096Y007573D01*
X002975Y007747D02*
X002932Y007790D01*
X002845Y007790D01*
X002801Y007747D01*
X001502Y007747D02*
X001458Y007790D01*
X001372Y007790D01*
X001328Y007747D01*
X001502Y007747D02*
X001502Y007703D01*
X001328Y007530D01*
X001502Y007530D01*
X000519Y006980D02*
X000433Y007067D01*
X000606Y006180D02*
X000606Y006060D01*
X000886Y006060D02*
X000886Y006180D01*
X000836Y004100D02*
X000836Y003980D01*
X000556Y003980D02*
X000556Y004100D01*
X018636Y008644D02*
X018679Y008601D01*
X018636Y008644D02*
X018636Y008731D01*
X018679Y008774D01*
X018723Y008774D01*
X018896Y008601D01*
X018896Y008774D01*
X018853Y008895D02*
X018896Y008939D01*
X018896Y009025D01*
X018853Y009069D01*
X018809Y009069D01*
X018766Y009025D01*
X018766Y008895D01*
X018853Y008895D01*
X018766Y008895D02*
X018679Y008982D01*
X018636Y009069D01*
X019636Y009069D02*
X019636Y008895D01*
X019766Y008895D01*
X019723Y008982D01*
X019723Y009025D01*
X019766Y009069D01*
X019853Y009069D01*
X019896Y009025D01*
X019896Y008939D01*
X019853Y008895D01*
X019896Y008774D02*
X019896Y008601D01*
X019723Y008774D01*
X019679Y008774D01*
X019636Y008731D01*
X019636Y008644D01*
X019679Y008601D01*
X020606Y008644D02*
X020649Y008601D01*
X020606Y008644D02*
X020606Y008731D01*
X020649Y008774D01*
X020693Y008774D01*
X020866Y008601D01*
X020866Y008774D01*
X020736Y008895D02*
X020736Y009069D01*
X020866Y009025D02*
X020606Y009025D01*
X020736Y008895D01*
X020656Y008060D02*
X020656Y007940D01*
X020376Y007940D02*
X020376Y008060D01*
X021636Y007710D02*
X021756Y007710D01*
X021756Y007430D02*
X021636Y007430D01*
D12*
X012116Y004920D02*
X012116Y003680D01*
X012115Y003659D01*
X012111Y003639D01*
X012104Y003620D01*
X012093Y003603D01*
X012079Y003587D01*
X011966Y003530D02*
X010266Y003530D01*
X010243Y003532D01*
X010220Y003537D01*
X010198Y003546D01*
X010178Y003559D01*
X010160Y003574D01*
X010145Y003592D01*
X010132Y003612D01*
X010123Y003634D01*
X010118Y003657D01*
X010116Y003680D01*
X010116Y003705D02*
X010116Y004050D01*
X010146Y004055D01*
X010176Y004064D01*
X010204Y004076D01*
X010231Y004091D01*
X010255Y004110D01*
X010277Y004132D01*
X010296Y004156D01*
X010312Y004182D01*
X010325Y004210D01*
X010334Y004239D01*
X010340Y004269D01*
X010342Y004300D01*
X010340Y004331D01*
X010334Y004361D01*
X010325Y004390D01*
X010312Y004418D01*
X010296Y004444D01*
X010277Y004468D01*
X010255Y004490D01*
X010231Y004509D01*
X010204Y004524D01*
X010176Y004536D01*
X010146Y004545D01*
X010116Y004550D01*
X010116Y004895D01*
X010116Y004840D01*
X010116Y004895D02*
X010115Y004915D01*
X010117Y004936D01*
X010122Y004956D01*
X010130Y004975D01*
X010140Y004992D01*
X010153Y005008D01*
X010136Y004945D02*
X010140Y004966D01*
X010146Y004986D01*
X010156Y005005D01*
X010168Y005022D01*
X010183Y005037D01*
X010200Y005050D01*
X010219Y005059D01*
X010239Y005066D01*
X010260Y005070D01*
X010281Y005070D01*
X011966Y005070D01*
X011989Y005068D01*
X012012Y005063D01*
X012034Y005054D01*
X012054Y005041D01*
X012072Y005026D01*
X012087Y005008D01*
X012100Y004988D01*
X012109Y004966D01*
X012114Y004943D01*
X012116Y004920D01*
X012115Y004939D01*
X012110Y004957D01*
X012103Y004975D01*
X012092Y004990D01*
X012079Y005004D01*
X012116Y003680D02*
X012114Y003657D01*
X012109Y003634D01*
X012100Y003612D01*
X012087Y003592D01*
X012072Y003574D01*
X012054Y003559D01*
X012034Y003546D01*
X012012Y003537D01*
X011989Y003532D01*
X011966Y003530D01*
X010153Y003592D02*
X010140Y003607D01*
X010129Y003623D01*
X010121Y003641D01*
X010117Y003660D01*
X010116Y003680D01*
X008266Y003630D02*
X008266Y004870D01*
X008265Y004889D01*
X008260Y004907D01*
X008253Y004925D01*
X008242Y004940D01*
X008229Y004954D01*
X008116Y005020D02*
X006431Y005020D01*
X006410Y005020D01*
X006389Y005016D01*
X006369Y005009D01*
X006350Y005000D01*
X006333Y004987D01*
X006318Y004972D01*
X006306Y004955D01*
X006296Y004936D01*
X006290Y004916D01*
X006286Y004895D01*
X006266Y004845D02*
X006266Y004500D01*
X006296Y004495D01*
X006326Y004486D01*
X006354Y004474D01*
X006381Y004459D01*
X006405Y004440D01*
X006427Y004418D01*
X006446Y004394D01*
X006462Y004368D01*
X006475Y004340D01*
X006484Y004311D01*
X006490Y004281D01*
X006492Y004250D01*
X006490Y004219D01*
X006484Y004189D01*
X006475Y004160D01*
X006462Y004132D01*
X006446Y004106D01*
X006427Y004082D01*
X006405Y004060D01*
X006381Y004041D01*
X006354Y004026D01*
X006326Y004014D01*
X006296Y004005D01*
X006266Y004000D01*
X006266Y003655D01*
X006266Y003630D02*
X006267Y003610D01*
X006271Y003591D01*
X006279Y003573D01*
X006290Y003557D01*
X006303Y003542D01*
X006416Y003480D02*
X008116Y003480D01*
X008229Y003537D02*
X008243Y003553D01*
X008254Y003570D01*
X008261Y003589D01*
X008265Y003609D01*
X008266Y003630D01*
X008264Y003607D01*
X008259Y003584D01*
X008250Y003562D01*
X008237Y003542D01*
X008222Y003524D01*
X008204Y003509D01*
X008184Y003496D01*
X008162Y003487D01*
X008139Y003482D01*
X008116Y003480D01*
X006416Y003480D02*
X006393Y003482D01*
X006370Y003487D01*
X006348Y003496D01*
X006328Y003509D01*
X006310Y003524D01*
X006295Y003542D01*
X006282Y003562D01*
X006273Y003584D01*
X006268Y003607D01*
X006266Y003630D01*
X006266Y004790D02*
X006266Y004845D01*
X006265Y004865D01*
X006267Y004886D01*
X006272Y004906D01*
X006280Y004925D01*
X006290Y004942D01*
X006303Y004958D01*
X008116Y005020D02*
X008139Y005018D01*
X008162Y005013D01*
X008184Y005004D01*
X008204Y004991D01*
X008222Y004976D01*
X008237Y004958D01*
X008250Y004938D01*
X008259Y004916D01*
X008264Y004893D01*
X008266Y004870D01*
X003216Y004270D02*
X003216Y005970D01*
X003159Y006083D02*
X003143Y006097D01*
X003126Y006108D01*
X003107Y006115D01*
X003087Y006119D01*
X003066Y006120D01*
X001826Y006120D01*
X001807Y006119D01*
X001789Y006114D01*
X001771Y006107D01*
X001756Y006096D01*
X001742Y006083D01*
X001676Y005970D02*
X001676Y004285D01*
X001676Y004264D01*
X001680Y004243D01*
X001687Y004223D01*
X001696Y004204D01*
X001709Y004187D01*
X001724Y004172D01*
X001741Y004160D01*
X001760Y004150D01*
X001780Y004144D01*
X001801Y004140D01*
X001851Y004120D02*
X002196Y004120D01*
X002201Y004150D01*
X002210Y004180D01*
X002222Y004208D01*
X002237Y004235D01*
X002256Y004259D01*
X002278Y004281D01*
X002302Y004300D01*
X002328Y004316D01*
X002356Y004329D01*
X002385Y004338D01*
X002415Y004344D01*
X002446Y004346D01*
X002477Y004344D01*
X002507Y004338D01*
X002536Y004329D01*
X002564Y004316D01*
X002590Y004300D01*
X002614Y004281D01*
X002636Y004259D01*
X002655Y004235D01*
X002670Y004208D01*
X002682Y004180D01*
X002691Y004150D01*
X002696Y004120D01*
X003041Y004120D01*
X003066Y004120D02*
X003086Y004121D01*
X003105Y004125D01*
X003123Y004133D01*
X003139Y004144D01*
X003154Y004157D01*
X003066Y004120D02*
X003089Y004122D01*
X003112Y004127D01*
X003134Y004136D01*
X003154Y004149D01*
X003172Y004164D01*
X003187Y004182D01*
X003200Y004202D01*
X003209Y004224D01*
X003214Y004247D01*
X003216Y004270D01*
X001906Y004120D02*
X001851Y004120D01*
X001831Y004119D01*
X001810Y004121D01*
X001790Y004126D01*
X001771Y004134D01*
X001754Y004144D01*
X001738Y004157D01*
X000226Y004480D02*
X000226Y004560D01*
X000226Y004640D01*
X000226Y004720D01*
X000226Y004800D01*
X000226Y004880D01*
X000226Y005060D01*
X000226Y005140D01*
X000226Y005220D01*
X000226Y005300D01*
X000226Y005380D01*
X000226Y005460D01*
X000226Y005060D02*
X000243Y005053D01*
X000259Y005043D01*
X000273Y005030D01*
X000283Y005015D01*
X000291Y004998D01*
X000295Y004979D01*
X000295Y004961D01*
X000291Y004942D01*
X000283Y004925D01*
X000273Y004910D01*
X000259Y004897D01*
X000243Y004887D01*
X000226Y004880D01*
X000226Y004800D02*
X000250Y004808D01*
X000273Y004820D01*
X000294Y004835D01*
X000312Y004853D01*
X000328Y004873D01*
X000340Y004896D01*
X000350Y004919D01*
X000355Y004944D01*
X000357Y004970D01*
X000355Y004996D01*
X000350Y005021D01*
X000340Y005044D01*
X000328Y005067D01*
X000312Y005087D01*
X000294Y005105D01*
X000273Y005120D01*
X000250Y005132D01*
X000226Y005140D01*
X000226Y005220D02*
X000256Y005211D01*
X000284Y005198D01*
X000310Y005181D01*
X000334Y005162D01*
X000356Y005140D01*
X000374Y005115D01*
X000390Y005089D01*
X000403Y005061D01*
X000412Y005031D01*
X000417Y005001D01*
X000419Y004970D01*
X000417Y004939D01*
X000412Y004909D01*
X000403Y004879D01*
X000390Y004851D01*
X000374Y004825D01*
X000356Y004800D01*
X000334Y004778D01*
X000310Y004759D01*
X000284Y004742D01*
X000256Y004729D01*
X000226Y004720D01*
X000225Y004640D02*
X000259Y004651D01*
X000292Y004666D01*
X000323Y004684D01*
X000352Y004705D01*
X000379Y004729D01*
X000403Y004755D01*
X000424Y004784D01*
X000442Y004815D01*
X000456Y004848D01*
X000467Y004882D01*
X000475Y004917D01*
X000479Y004952D01*
X000479Y004988D01*
X000475Y005023D01*
X000467Y005058D01*
X000456Y005092D01*
X000442Y005125D01*
X000424Y005156D01*
X000403Y005185D01*
X000379Y005211D01*
X000352Y005235D01*
X000323Y005256D01*
X000292Y005274D01*
X000259Y005289D01*
X000225Y005300D01*
X000226Y005380D02*
X000264Y005368D01*
X000300Y005352D01*
X000335Y005334D01*
X000368Y005312D01*
X000399Y005287D01*
X000427Y005259D01*
X000453Y005229D01*
X000476Y005196D01*
X000495Y005161D01*
X000512Y005125D01*
X000524Y005088D01*
X000534Y005049D01*
X000539Y005010D01*
X000541Y004970D01*
X000539Y004930D01*
X000534Y004891D01*
X000524Y004852D01*
X000512Y004815D01*
X000495Y004779D01*
X000476Y004744D01*
X000453Y004711D01*
X000427Y004681D01*
X000399Y004653D01*
X000368Y004628D01*
X000335Y004606D01*
X000300Y004588D01*
X000264Y004572D01*
X000226Y004560D01*
X000226Y004480D02*
X000268Y004493D01*
X000309Y004510D01*
X000349Y004530D01*
X000386Y004554D01*
X000421Y004581D01*
X000454Y004611D01*
X000484Y004644D01*
X000511Y004679D01*
X000535Y004716D01*
X000555Y004755D01*
X000572Y004796D01*
X000586Y004839D01*
X000595Y004882D01*
X000601Y004926D01*
X000603Y004970D01*
X000601Y005014D01*
X000595Y005058D01*
X000586Y005101D01*
X000572Y005144D01*
X000555Y005185D01*
X000535Y005224D01*
X000511Y005261D01*
X000484Y005296D01*
X000454Y005329D01*
X000421Y005359D01*
X000386Y005386D01*
X000349Y005410D01*
X000309Y005430D01*
X000268Y005447D01*
X000226Y005460D01*
X001676Y005970D02*
X001678Y005993D01*
X001683Y006016D01*
X001692Y006038D01*
X001705Y006058D01*
X001720Y006076D01*
X001738Y006091D01*
X001758Y006104D01*
X001780Y006113D01*
X001803Y006118D01*
X001826Y006120D01*
X003066Y006120D02*
X003089Y006118D01*
X003112Y006113D01*
X003134Y006104D01*
X003154Y006091D01*
X003172Y006076D01*
X003187Y006058D01*
X003200Y006038D01*
X003209Y006016D01*
X003214Y005993D01*
X003216Y005970D01*
X003172Y008090D02*
X003118Y008143D01*
X003118Y008250D01*
X003172Y008304D01*
X003278Y008304D01*
X003332Y008250D01*
X003332Y008197D01*
X003118Y008197D01*
X003172Y008090D02*
X003278Y008090D01*
X003487Y008090D02*
X003487Y008304D01*
X003593Y008304D02*
X003647Y008304D01*
X003593Y008304D02*
X003487Y008197D01*
X002964Y008304D02*
X002857Y008090D01*
X002750Y008304D01*
X002558Y008304D02*
X002558Y008090D01*
X002611Y008090D02*
X002504Y008090D01*
X002504Y008304D02*
X002558Y008304D01*
X002558Y008410D02*
X002558Y008464D01*
X002358Y008304D02*
X002304Y008304D01*
X002198Y008197D01*
X002198Y008090D02*
X002198Y008304D01*
X002043Y008357D02*
X001989Y008410D01*
X001829Y008410D01*
X001829Y008090D01*
X001989Y008090D01*
X002043Y008143D01*
X002043Y008357D01*
X001306Y008357D02*
X001306Y008143D01*
X001253Y008090D01*
X001093Y008090D01*
X001093Y008410D01*
X001253Y008410D01*
X001306Y008357D01*
X000938Y008357D02*
X000938Y008304D01*
X000884Y008250D01*
X000724Y008250D01*
X000724Y008090D02*
X000724Y008410D01*
X000884Y008410D01*
X000938Y008357D01*
X000884Y008250D02*
X000938Y008197D01*
X000938Y008143D01*
X000884Y008090D01*
X000724Y008090D01*
X000570Y008143D02*
X000570Y008357D01*
X000516Y008410D01*
X000409Y008410D01*
X000356Y008357D01*
X000356Y008143D01*
X000409Y008090D01*
X000516Y008090D01*
X000570Y008143D01*
X004162Y008090D02*
X004162Y008410D01*
X004269Y008304D01*
X004375Y008410D01*
X004375Y008090D01*
X004530Y008143D02*
X004584Y008090D01*
X004690Y008090D01*
X004744Y008143D01*
X004744Y008250D01*
X004690Y008304D01*
X004584Y008304D01*
X004530Y008250D01*
X004530Y008143D01*
X004899Y008143D02*
X004952Y008090D01*
X005112Y008090D01*
X005112Y008410D01*
X005112Y008304D02*
X004952Y008304D01*
X004899Y008250D01*
X004899Y008143D01*
X005267Y008143D02*
X005320Y008090D01*
X005480Y008090D01*
X005480Y008304D01*
X005635Y008410D02*
X005689Y008410D01*
X005689Y008090D01*
X005742Y008090D02*
X005635Y008090D01*
X005267Y008143D02*
X005267Y008304D01*
X005881Y008250D02*
X005881Y008143D01*
X005934Y008090D01*
X006041Y008090D01*
X006094Y008197D02*
X005881Y008197D01*
X005881Y008250D02*
X005934Y008304D01*
X006041Y008304D01*
X006094Y008250D01*
X006094Y008197D01*
D13*
X004973Y002360D02*
X004820Y002360D01*
X004743Y002284D01*
X004743Y002207D01*
X004820Y002130D01*
X004973Y002130D01*
X005050Y002053D01*
X005050Y001977D01*
X004973Y001900D01*
X004820Y001900D01*
X004743Y001977D01*
X004534Y001900D02*
X004534Y002360D01*
X004534Y002130D02*
X004227Y002130D01*
X004019Y002130D02*
X004019Y001977D01*
X003942Y001900D01*
X003788Y001900D01*
X003712Y001977D01*
X003712Y002130D01*
X003788Y002207D01*
X003942Y002207D01*
X004019Y002130D01*
X004227Y001900D02*
X004227Y002360D01*
X003503Y002284D02*
X003503Y002130D01*
X003426Y002053D01*
X003196Y002053D01*
X003196Y001900D02*
X003196Y002360D01*
X003426Y002360D01*
X003503Y002284D01*
X003349Y002053D02*
X003503Y001900D01*
X004973Y002360D02*
X005050Y002284D01*
D14*
X006011Y002548D02*
X006011Y002632D01*
X006011Y002590D02*
X006261Y002590D01*
X006261Y002548D02*
X006261Y002632D01*
X006219Y002733D02*
X006052Y002733D01*
X006011Y002774D01*
X006011Y002858D01*
X006052Y002899D01*
X006094Y003009D02*
X006011Y003092D01*
X006261Y003092D01*
X006261Y003009D02*
X006261Y003176D01*
X006219Y002899D02*
X006261Y002858D01*
X006261Y002774D01*
X006219Y002733D01*
X006449Y001925D02*
X006574Y001925D01*
X006615Y001884D01*
X006615Y001800D01*
X006574Y001758D01*
X006449Y001758D01*
X006532Y001758D02*
X006615Y001675D01*
X006725Y001717D02*
X006766Y001675D01*
X006850Y001675D01*
X006892Y001717D01*
X006892Y001758D01*
X006850Y001800D01*
X006725Y001800D01*
X006725Y001717D01*
X006725Y001800D02*
X006808Y001884D01*
X006892Y001925D01*
X006449Y001925D02*
X006449Y001675D01*
X006516Y001200D02*
X006266Y000950D01*
X006016Y001200D01*
X005516Y001200D01*
X005266Y000950D01*
X005016Y001200D01*
X004516Y001200D01*
X004266Y000950D01*
X004016Y001200D01*
X003516Y001200D01*
X003266Y000950D01*
X003016Y001200D01*
X002516Y001200D01*
X002266Y000950D01*
X002016Y001200D01*
X001516Y001200D01*
X001266Y000950D01*
X001266Y001200D01*
X000266Y001200D01*
X000266Y000200D01*
X001266Y000200D01*
X001266Y000450D01*
X001516Y000200D01*
X002016Y000200D01*
X002266Y000450D01*
X002516Y000200D01*
X003016Y000200D01*
X003266Y000450D01*
X003516Y000200D01*
X004016Y000200D01*
X004266Y000450D01*
X004516Y000200D01*
X005016Y000200D01*
X005266Y000450D01*
X005516Y000200D01*
X006016Y000200D01*
X006266Y000450D01*
X006516Y000200D01*
X007016Y000200D01*
X007266Y000450D01*
X007516Y000200D01*
X008016Y000200D01*
X008266Y000450D01*
X008516Y000200D01*
X009016Y000200D01*
X009266Y000450D01*
X009516Y000200D01*
X010016Y000200D01*
X010266Y000450D01*
X010516Y000200D01*
X011016Y000200D01*
X011266Y000450D01*
X011516Y000200D01*
X012016Y000200D01*
X012266Y000450D01*
X012516Y000200D01*
X013016Y000200D01*
X013266Y000450D01*
X013516Y000200D01*
X014016Y000200D01*
X014266Y000450D01*
X014516Y000200D01*
X015016Y000200D01*
X015266Y000450D01*
X015516Y000200D01*
X016016Y000200D01*
X016266Y000450D01*
X016516Y000200D01*
X017016Y000200D01*
X017266Y000450D01*
X017516Y000200D01*
X018016Y000200D01*
X018266Y000450D01*
X018516Y000200D01*
X019016Y000200D01*
X019266Y000450D01*
X019516Y000200D01*
X020016Y000200D01*
X020266Y000450D01*
X020516Y000200D01*
X021016Y000200D01*
X021266Y000450D01*
X021516Y000200D01*
X022016Y000200D01*
X022266Y000450D01*
X022266Y000950D01*
X022016Y001200D01*
X021516Y001200D01*
X021266Y000950D01*
X021016Y001200D01*
X020516Y001200D01*
X020266Y000950D01*
X020016Y001200D01*
X019516Y001200D01*
X019266Y000950D01*
X019016Y001200D01*
X018516Y001200D01*
X018266Y000950D01*
X018016Y001200D01*
X017516Y001200D01*
X017266Y000950D01*
X017016Y001200D01*
X016516Y001200D01*
X016266Y000950D01*
X016016Y001200D01*
X015516Y001200D01*
X015266Y000950D01*
X015016Y001200D01*
X014516Y001200D01*
X014266Y000950D01*
X014016Y001200D01*
X013516Y001200D01*
X013266Y000950D01*
X013016Y001200D01*
X012516Y001200D01*
X012266Y000950D01*
X012016Y001200D01*
X011516Y001200D01*
X011266Y000950D01*
X011016Y001200D01*
X010516Y001200D01*
X010266Y000950D01*
X010016Y001200D01*
X009516Y001200D01*
X009266Y000950D01*
X009016Y001200D01*
X008516Y001200D01*
X008266Y000950D01*
X008016Y001200D01*
X007516Y001200D01*
X007266Y000950D01*
X007016Y001200D01*
X006516Y001200D01*
X008351Y002377D02*
X008393Y002335D01*
X008476Y002335D01*
X008518Y002377D01*
X008627Y002335D02*
X008794Y002335D01*
X008711Y002335D02*
X008711Y002585D01*
X008627Y002502D01*
X008518Y002544D02*
X008476Y002585D01*
X008393Y002585D01*
X008351Y002544D01*
X008351Y002377D01*
X009081Y002365D02*
X009081Y002490D01*
X009122Y002532D01*
X009206Y002532D01*
X009248Y002490D01*
X009248Y002365D01*
X009331Y002365D02*
X009081Y002365D01*
X009248Y002448D02*
X009331Y002532D01*
X009331Y002641D02*
X009331Y002808D01*
X009331Y002725D02*
X009081Y002725D01*
X009164Y002641D01*
X008962Y002972D02*
X008795Y002972D01*
X008878Y002972D02*
X008878Y003223D01*
X008795Y003139D01*
X008685Y003181D02*
X008685Y003014D01*
X008644Y002972D01*
X008560Y002972D01*
X008519Y003014D01*
X008519Y003181D01*
X008560Y003223D01*
X008644Y003223D01*
X008685Y003181D01*
X008602Y003056D02*
X008685Y002972D01*
X008576Y003300D02*
X009116Y003300D01*
X009116Y003340D01*
X008576Y003300D02*
X008576Y003600D01*
X008576Y004000D02*
X008576Y004300D01*
X009116Y004300D01*
X009116Y004260D01*
X009741Y004251D02*
X009782Y004209D01*
X009949Y004209D01*
X009991Y004251D01*
X009991Y004334D01*
X009949Y004376D01*
X009949Y004485D02*
X009991Y004527D01*
X009991Y004610D01*
X009949Y004652D01*
X009866Y004652D01*
X009824Y004610D01*
X009824Y004569D01*
X009866Y004485D01*
X009741Y004485D01*
X009741Y004652D01*
X009782Y004376D02*
X009741Y004334D01*
X009741Y004251D01*
X009741Y004108D02*
X009741Y004025D01*
X009741Y004067D02*
X009991Y004067D01*
X009991Y004108D02*
X009991Y004025D01*
X009271Y004713D02*
X009021Y004713D01*
X009021Y004838D01*
X009062Y004879D01*
X009146Y004879D01*
X009188Y004838D01*
X009188Y004713D01*
X009188Y004796D02*
X009271Y004879D01*
X009229Y004989D02*
X009271Y005030D01*
X009271Y005114D01*
X009229Y005156D01*
X009146Y005156D01*
X009104Y005114D01*
X009104Y005072D01*
X009146Y004989D01*
X009021Y004989D01*
X009021Y005156D01*
X009341Y005325D02*
X009341Y005450D01*
X009382Y005492D01*
X009466Y005492D01*
X009508Y005450D01*
X009508Y005325D01*
X009591Y005325D02*
X009341Y005325D01*
X009508Y005408D02*
X009591Y005492D01*
X009549Y005601D02*
X009591Y005643D01*
X009591Y005726D01*
X009549Y005768D01*
X009508Y005768D01*
X009466Y005726D01*
X009466Y005685D01*
X009466Y005726D02*
X009424Y005768D01*
X009382Y005768D01*
X009341Y005726D01*
X009341Y005643D01*
X009382Y005601D01*
X009382Y005877D02*
X009424Y005877D01*
X009466Y005919D01*
X009466Y006003D01*
X009508Y006044D01*
X009549Y006044D01*
X009591Y006003D01*
X009591Y005919D01*
X009549Y005877D01*
X009508Y005877D01*
X009466Y005919D01*
X009466Y006003D02*
X009424Y006044D01*
X009382Y006044D01*
X009341Y006003D01*
X009341Y005919D01*
X009382Y005877D01*
X010152Y006365D02*
X010152Y006615D01*
X010277Y006615D01*
X010319Y006574D01*
X010319Y006490D01*
X010277Y006448D01*
X010152Y006448D01*
X010236Y006448D02*
X010319Y006365D01*
X010429Y006490D02*
X010595Y006490D01*
X010554Y006365D02*
X010554Y006615D01*
X010429Y006490D01*
X010705Y006407D02*
X010872Y006574D01*
X010872Y006407D01*
X010830Y006365D01*
X010746Y006365D01*
X010705Y006407D01*
X010705Y006574D01*
X010746Y006615D01*
X010830Y006615D01*
X010872Y006574D01*
X011881Y006726D02*
X011881Y006851D01*
X011922Y006893D01*
X012006Y006893D01*
X012048Y006851D01*
X012048Y006726D01*
X012131Y006726D02*
X011881Y006726D01*
X012048Y006810D02*
X012131Y006893D01*
X012089Y007003D02*
X012131Y007044D01*
X012131Y007128D01*
X012089Y007169D01*
X012048Y007169D01*
X012006Y007128D01*
X012006Y007086D01*
X012006Y007128D02*
X011964Y007169D01*
X011922Y007169D01*
X011881Y007128D01*
X011881Y007044D01*
X011922Y007003D01*
X011922Y007279D02*
X011964Y007279D01*
X012006Y007320D01*
X012006Y007446D01*
X012089Y007446D02*
X011922Y007446D01*
X011881Y007404D01*
X011881Y007320D01*
X011922Y007279D01*
X012089Y007279D02*
X012131Y007320D01*
X012131Y007404D01*
X012089Y007446D01*
X011361Y007567D02*
X011361Y007650D01*
X011319Y007692D01*
X011361Y007567D02*
X011319Y007525D01*
X011152Y007525D01*
X011111Y007567D01*
X011111Y007650D01*
X011152Y007692D01*
X011152Y007801D02*
X011194Y007801D01*
X011236Y007843D01*
X011236Y007926D01*
X011278Y007968D01*
X011319Y007968D01*
X011361Y007926D01*
X011361Y007843D01*
X011319Y007801D01*
X011278Y007801D01*
X011236Y007843D01*
X011236Y007926D02*
X011194Y007968D01*
X011152Y007968D01*
X011111Y007926D01*
X011111Y007843D01*
X011152Y007801D01*
X010121Y007833D02*
X010079Y007791D01*
X010121Y007833D02*
X010121Y007916D01*
X010079Y007958D01*
X009912Y007958D01*
X009871Y007916D01*
X009871Y007833D01*
X009912Y007791D01*
X009954Y007791D01*
X009996Y007833D01*
X009996Y007958D01*
X010079Y007682D02*
X010121Y007640D01*
X010121Y007557D01*
X010079Y007515D01*
X009912Y007515D01*
X009871Y007557D01*
X009871Y007640D01*
X009912Y007682D01*
X008051Y007536D02*
X008051Y007369D01*
X007884Y007536D01*
X007842Y007536D01*
X007801Y007494D01*
X007801Y007410D01*
X007842Y007369D01*
X007842Y007259D02*
X007801Y007218D01*
X007801Y007134D01*
X007842Y007093D01*
X008009Y007093D01*
X008051Y007134D01*
X008051Y007218D01*
X008009Y007259D01*
X006712Y006914D02*
X006712Y006872D01*
X006670Y006830D01*
X006712Y006788D01*
X006712Y006747D01*
X006670Y006705D01*
X006586Y006705D01*
X006545Y006747D01*
X006435Y006747D02*
X006394Y006705D01*
X006310Y006705D01*
X006269Y006747D01*
X006269Y006914D01*
X006310Y006955D01*
X006394Y006955D01*
X006435Y006914D01*
X006545Y006914D02*
X006586Y006955D01*
X006670Y006955D01*
X006712Y006914D01*
X006670Y006830D02*
X006628Y006830D01*
X006636Y006578D02*
X006636Y006411D01*
X006511Y006536D01*
X006761Y006536D01*
X006761Y006302D02*
X006678Y006218D01*
X006678Y006260D02*
X006678Y006135D01*
X006761Y006135D02*
X006511Y006135D01*
X006511Y006260D01*
X006552Y006302D01*
X006636Y006302D01*
X006678Y006260D01*
X005910Y006064D02*
X005910Y006022D01*
X005743Y005855D01*
X005910Y005855D01*
X005910Y006064D02*
X005869Y006105D01*
X005785Y006105D01*
X005743Y006064D01*
X005551Y006105D02*
X005467Y006022D01*
X005358Y006064D02*
X005358Y005980D01*
X005316Y005938D01*
X005191Y005938D01*
X005191Y005855D02*
X005191Y006105D01*
X005316Y006105D01*
X005358Y006064D01*
X005274Y005938D02*
X005358Y005855D01*
X005467Y005855D02*
X005634Y005855D01*
X005551Y005855D02*
X005551Y006105D01*
X004820Y005824D02*
X004653Y005657D01*
X004695Y005615D01*
X004779Y005615D01*
X004820Y005657D01*
X004820Y005824D01*
X004779Y005865D01*
X004695Y005865D01*
X004653Y005824D01*
X004653Y005657D01*
X004544Y005615D02*
X004377Y005615D01*
X004461Y005615D02*
X004461Y005865D01*
X004377Y005782D01*
X004268Y005824D02*
X004226Y005865D01*
X004101Y005865D01*
X004101Y005615D01*
X004101Y005698D02*
X004226Y005698D01*
X004268Y005740D01*
X004268Y005824D01*
X004184Y005698D02*
X004268Y005615D01*
X004460Y005083D02*
X004544Y005083D01*
X004585Y005041D01*
X004585Y004874D01*
X004544Y004832D01*
X004460Y004832D01*
X004419Y004874D01*
X004419Y005041D01*
X004460Y005083D01*
X004502Y004916D02*
X004585Y004832D01*
X004695Y004832D02*
X004862Y004999D01*
X004862Y005041D01*
X004820Y005083D01*
X004736Y005083D01*
X004695Y005041D01*
X004695Y004832D02*
X004862Y004832D01*
X005016Y004950D02*
X005056Y004950D01*
X005016Y004950D02*
X005016Y004410D01*
X005316Y004410D01*
X005716Y004410D02*
X006016Y004410D01*
X006016Y004950D01*
X005976Y004950D01*
X004728Y004275D02*
X004728Y004025D01*
X004645Y004025D02*
X004812Y004025D01*
X004535Y004025D02*
X004369Y004025D01*
X004452Y004025D02*
X004452Y004275D01*
X004369Y004192D01*
X004259Y004234D02*
X004259Y004150D01*
X004217Y004108D01*
X004092Y004108D01*
X004092Y004025D02*
X004092Y004275D01*
X004217Y004275D01*
X004259Y004234D01*
X004176Y004108D02*
X004259Y004025D01*
X004645Y004192D02*
X004728Y004275D01*
X005421Y003976D02*
X005421Y003893D01*
X005462Y003851D01*
X005421Y003976D02*
X005462Y004018D01*
X005504Y004018D01*
X005671Y003851D01*
X005671Y004018D01*
X005671Y003742D02*
X005588Y003658D01*
X005588Y003700D02*
X005588Y003575D01*
X005671Y003575D02*
X005421Y003575D01*
X005421Y003700D01*
X005462Y003742D01*
X005546Y003742D01*
X005588Y003700D01*
X003010Y002526D02*
X002968Y002568D01*
X002885Y002568D01*
X002843Y002526D01*
X002843Y002484D01*
X002885Y002443D01*
X003010Y002443D01*
X003010Y002526D02*
X003010Y002359D01*
X002968Y002318D01*
X002885Y002318D01*
X002843Y002359D01*
X002734Y002318D02*
X002650Y002401D01*
X002692Y002401D02*
X002567Y002401D01*
X002567Y002318D02*
X002567Y002568D01*
X002692Y002568D01*
X002734Y002526D01*
X002734Y002443D01*
X002692Y002401D01*
X000902Y003297D02*
X000860Y003255D01*
X000776Y003255D01*
X000735Y003297D01*
X000735Y003380D02*
X000818Y003422D01*
X000860Y003422D01*
X000902Y003380D01*
X000902Y003297D01*
X000735Y003380D02*
X000735Y003505D01*
X000902Y003505D01*
X000625Y003464D02*
X000584Y003505D01*
X000500Y003505D01*
X000459Y003464D01*
X000459Y003297D01*
X000500Y003255D01*
X000584Y003255D01*
X000625Y003297D01*
X000491Y005955D02*
X000241Y005955D01*
X000241Y006080D01*
X000282Y006122D01*
X000366Y006122D01*
X000408Y006080D01*
X000408Y005955D01*
X000408Y006038D02*
X000491Y006122D01*
X000449Y006231D02*
X000408Y006231D01*
X000366Y006273D01*
X000366Y006356D01*
X000408Y006398D01*
X000449Y006398D01*
X000491Y006356D01*
X000491Y006273D01*
X000449Y006231D01*
X000366Y006273D02*
X000324Y006231D01*
X000282Y006231D01*
X000241Y006273D01*
X000241Y006356D01*
X000282Y006398D01*
X000324Y006398D01*
X000366Y006356D01*
X001204Y006275D02*
X001288Y006275D01*
X001246Y006275D02*
X001246Y006525D01*
X001204Y006525D02*
X001288Y006525D01*
X001389Y006484D02*
X001389Y006317D01*
X001430Y006275D01*
X001514Y006275D01*
X001555Y006317D01*
X001665Y006275D02*
X001832Y006442D01*
X001832Y006484D01*
X001790Y006525D01*
X001706Y006525D01*
X001665Y006484D01*
X001555Y006484D02*
X001514Y006525D01*
X001430Y006525D01*
X001389Y006484D01*
X001665Y006275D02*
X001832Y006275D01*
X002366Y006348D02*
X002926Y006348D01*
X002776Y006310D02*
X002516Y006310D01*
X002366Y006792D02*
X002926Y006792D01*
X002776Y006830D02*
X002516Y006830D01*
X002546Y006935D02*
X002463Y006935D01*
X002421Y006977D01*
X002421Y007144D01*
X002463Y007185D01*
X002546Y007185D01*
X002588Y007144D01*
X002697Y007060D02*
X002864Y007060D01*
X002822Y006935D02*
X002822Y007185D01*
X002697Y007060D01*
X002588Y006977D02*
X002546Y006935D01*
X004281Y006928D02*
X004406Y006928D01*
X004448Y006970D01*
X004448Y007054D01*
X004406Y007095D01*
X004281Y007095D01*
X004281Y006845D01*
X004364Y006928D02*
X004448Y006845D01*
X004557Y006845D02*
X004557Y006887D01*
X004724Y007054D01*
X004724Y007095D01*
X004557Y007095D01*
X007771Y006484D02*
X007771Y006400D01*
X007812Y006359D01*
X007812Y006249D02*
X007896Y006249D01*
X007938Y006208D01*
X007938Y006083D01*
X007938Y006166D02*
X008021Y006249D01*
X007979Y006359D02*
X008021Y006400D01*
X008021Y006484D01*
X007979Y006526D01*
X007938Y006526D01*
X007896Y006484D01*
X007896Y006442D01*
X007896Y006484D02*
X007854Y006526D01*
X007812Y006526D01*
X007771Y006484D01*
X007812Y006249D02*
X007771Y006208D01*
X007771Y006083D01*
X008021Y006083D01*
X012308Y006407D02*
X012308Y006490D01*
X012350Y006532D01*
X012517Y006532D01*
X012558Y006490D01*
X012558Y006407D01*
X012517Y006365D01*
X012350Y006365D01*
X012308Y006407D01*
X012475Y006448D02*
X012558Y006532D01*
X012517Y006641D02*
X012475Y006641D01*
X012433Y006683D01*
X012433Y006766D01*
X012475Y006808D01*
X012517Y006808D01*
X012558Y006766D01*
X012558Y006683D01*
X012517Y006641D01*
X012433Y006683D02*
X012392Y006641D01*
X012350Y006641D01*
X012308Y006683D01*
X012308Y006766D01*
X012350Y006808D01*
X012392Y006808D01*
X012433Y006766D01*
X012656Y006840D02*
X012696Y006840D01*
X012656Y006840D02*
X012656Y006300D01*
X012956Y006300D01*
X013356Y006300D02*
X013656Y006300D01*
X013656Y006840D01*
X013616Y006840D01*
X013870Y006745D02*
X013912Y006787D01*
X014079Y006620D01*
X014120Y006662D01*
X014120Y006745D01*
X014079Y006787D01*
X013912Y006787D01*
X013870Y006745D02*
X013870Y006662D01*
X013912Y006620D01*
X014079Y006620D01*
X014079Y006511D02*
X014120Y006469D01*
X014120Y006386D01*
X014079Y006344D01*
X013995Y006427D02*
X013995Y006469D01*
X014037Y006511D01*
X014079Y006511D01*
X013995Y006469D02*
X013954Y006511D01*
X013912Y006511D01*
X013870Y006469D01*
X013870Y006386D01*
X013912Y006344D01*
X013912Y006234D02*
X013995Y006234D01*
X014037Y006193D01*
X014037Y006068D01*
X014037Y006151D02*
X014120Y006234D01*
X014120Y006068D02*
X013870Y006068D01*
X013870Y006193D01*
X013912Y006234D01*
X015736Y005780D02*
X015786Y005830D01*
X016076Y005830D01*
X016071Y005925D02*
X015821Y005925D01*
X015821Y006050D01*
X015862Y006092D01*
X015946Y006092D01*
X015988Y006050D01*
X015988Y005925D01*
X015988Y006008D02*
X016071Y006092D01*
X016029Y006201D02*
X016071Y006243D01*
X016071Y006326D01*
X016029Y006368D01*
X015988Y006368D01*
X015946Y006326D01*
X015946Y006285D01*
X015946Y006326D02*
X015904Y006368D01*
X015862Y006368D01*
X015821Y006326D01*
X015821Y006243D01*
X015862Y006201D01*
X016326Y006200D02*
X016326Y005900D01*
X016866Y005900D01*
X016866Y005940D01*
X016904Y005765D02*
X016820Y005765D01*
X016779Y005724D01*
X016669Y005724D02*
X016669Y005640D01*
X016627Y005598D01*
X016502Y005598D01*
X016502Y005515D02*
X016502Y005765D01*
X016627Y005765D01*
X016669Y005724D01*
X016904Y005765D02*
X016945Y005724D01*
X016945Y005682D01*
X016779Y005515D01*
X016945Y005515D01*
X017055Y005557D02*
X017096Y005515D01*
X017180Y005515D01*
X017222Y005557D01*
X017222Y005724D01*
X017180Y005765D01*
X017096Y005765D01*
X017055Y005724D01*
X017055Y005682D01*
X017096Y005640D01*
X017222Y005640D01*
X016669Y005515D02*
X016586Y005598D01*
X015977Y005204D02*
X017737Y005204D01*
X017737Y003196D01*
X015977Y003196D01*
X015977Y005204D01*
X014952Y005154D02*
X014952Y004987D01*
X014910Y004945D01*
X014826Y004945D01*
X014785Y004987D01*
X014952Y005154D01*
X014910Y005195D01*
X014826Y005195D01*
X014785Y005154D01*
X014785Y004987D01*
X014675Y004945D02*
X014509Y004945D01*
X014675Y005112D01*
X014675Y005154D01*
X014634Y005195D01*
X014550Y005195D01*
X014509Y005154D01*
X014399Y005154D02*
X014399Y005070D01*
X014357Y005028D01*
X014232Y005028D01*
X014232Y004945D02*
X014232Y005195D01*
X014357Y005195D01*
X014399Y005154D01*
X014316Y005028D02*
X014399Y004945D01*
X013952Y004734D02*
X013952Y004692D01*
X013910Y004650D01*
X013952Y004608D01*
X013952Y004567D01*
X013910Y004525D01*
X013826Y004525D01*
X013785Y004567D01*
X013675Y004567D02*
X013675Y004608D01*
X013634Y004650D01*
X013592Y004650D01*
X013634Y004650D02*
X013675Y004692D01*
X013675Y004734D01*
X013634Y004775D01*
X013550Y004775D01*
X013509Y004734D01*
X013399Y004734D02*
X013399Y004650D01*
X013357Y004608D01*
X013232Y004608D01*
X013232Y004525D02*
X013232Y004775D01*
X013357Y004775D01*
X013399Y004734D01*
X013316Y004608D02*
X013399Y004525D01*
X013509Y004567D02*
X013550Y004525D01*
X013634Y004525D01*
X013675Y004567D01*
X013868Y004650D02*
X013910Y004650D01*
X013952Y004734D02*
X013910Y004775D01*
X013826Y004775D01*
X013785Y004734D01*
X013731Y004294D02*
X013731Y004127D01*
X013856Y004127D01*
X013814Y004211D01*
X013814Y004253D01*
X013856Y004294D01*
X013939Y004294D01*
X013981Y004253D01*
X013981Y004169D01*
X013939Y004127D01*
X013939Y004018D02*
X013981Y003976D01*
X013981Y003893D01*
X013939Y003851D01*
X013856Y003935D02*
X013856Y003976D01*
X013898Y004018D01*
X013939Y004018D01*
X013856Y003976D02*
X013814Y004018D01*
X013772Y004018D01*
X013731Y003976D01*
X013731Y003893D01*
X013772Y003851D01*
X013772Y003742D02*
X013731Y003700D01*
X013731Y003575D01*
X013981Y003575D01*
X013898Y003575D02*
X013898Y003700D01*
X013856Y003742D01*
X013772Y003742D01*
X013898Y003658D02*
X013981Y003742D01*
X013236Y004150D02*
X013236Y004190D01*
X012696Y004190D01*
X012696Y003890D01*
X012448Y003939D02*
X012448Y004023D01*
X012407Y004064D01*
X012240Y004064D01*
X012407Y003897D01*
X012448Y003939D01*
X012407Y003897D02*
X012240Y003897D01*
X012198Y003939D01*
X012198Y004023D01*
X012240Y004064D01*
X012448Y003788D02*
X012448Y003621D01*
X012448Y003705D02*
X012198Y003705D01*
X012282Y003621D01*
X012240Y003512D02*
X012407Y003512D01*
X012448Y003470D01*
X012448Y003387D01*
X012407Y003345D01*
X012240Y003345D01*
X012198Y003387D01*
X012198Y003470D01*
X012240Y003512D01*
X012365Y003428D02*
X012448Y003512D01*
X012696Y003490D02*
X012696Y003190D01*
X013236Y003190D01*
X013236Y003230D01*
X013257Y003072D02*
X013132Y003072D01*
X013132Y002821D01*
X013257Y002821D01*
X013298Y002863D01*
X013298Y003030D01*
X013257Y003072D01*
X013408Y003072D02*
X013575Y003072D01*
X013575Y003030D01*
X013408Y002863D01*
X013408Y002821D01*
X013655Y002640D02*
X013937Y002640D01*
X013796Y002620D02*
X013937Y002440D01*
X013655Y002440D01*
X013796Y002620D01*
X014272Y002335D02*
X014397Y002335D01*
X014439Y002294D01*
X014439Y002210D01*
X014397Y002168D01*
X014272Y002168D01*
X014272Y002085D02*
X014272Y002335D01*
X014549Y002294D02*
X014590Y002335D01*
X014674Y002335D01*
X014715Y002294D01*
X014715Y002252D01*
X014549Y002085D01*
X014715Y002085D01*
X014825Y002085D02*
X014992Y002085D01*
X014908Y002085D02*
X014908Y002335D01*
X014825Y002252D01*
X014439Y002085D02*
X014356Y002168D01*
X015091Y001974D02*
X015216Y001849D01*
X015216Y002016D01*
X015341Y001974D02*
X015091Y001974D01*
X015132Y001739D02*
X015091Y001698D01*
X015091Y001614D01*
X015132Y001573D01*
X015132Y001463D02*
X015216Y001463D01*
X015258Y001421D01*
X015258Y001296D01*
X015341Y001296D02*
X015091Y001296D01*
X015091Y001421D01*
X015132Y001463D01*
X015258Y001380D02*
X015341Y001463D01*
X015341Y001573D02*
X015174Y001739D01*
X015132Y001739D01*
X015341Y001739D02*
X015341Y001573D01*
X015925Y002000D02*
X016066Y002180D01*
X016207Y002000D01*
X015925Y002000D01*
X015925Y002200D02*
X016207Y002200D01*
X016304Y002194D02*
X016346Y002152D01*
X016304Y002194D02*
X016304Y002277D01*
X016346Y002319D01*
X016388Y002319D01*
X016430Y002277D01*
X016471Y002319D01*
X016513Y002319D01*
X016555Y002277D01*
X016555Y002194D01*
X016513Y002152D01*
X016513Y002042D02*
X016346Y002042D01*
X016304Y002001D01*
X016304Y001876D01*
X016555Y001876D01*
X016555Y002001D01*
X016513Y002042D01*
X016430Y002235D02*
X016430Y002277D01*
X016429Y002495D02*
X016346Y002578D01*
X016387Y002578D02*
X016262Y002578D01*
X016262Y002495D02*
X016262Y002745D01*
X016387Y002745D01*
X016429Y002704D01*
X016429Y002620D01*
X016387Y002578D01*
X016539Y002495D02*
X016705Y002662D01*
X016705Y002704D01*
X016664Y002745D01*
X016580Y002745D01*
X016539Y002704D01*
X016521Y002866D02*
X016437Y002866D01*
X016396Y002908D01*
X016396Y003075D01*
X016437Y003117D01*
X016521Y003117D01*
X016563Y003075D01*
X016672Y002991D02*
X016839Y002991D01*
X016797Y002866D02*
X016797Y003117D01*
X016672Y002991D01*
X016563Y002908D02*
X016521Y002866D01*
X016295Y002866D02*
X016212Y002866D01*
X016253Y002866D02*
X016253Y003117D01*
X016212Y003117D02*
X016295Y003117D01*
X016815Y002704D02*
X016856Y002745D01*
X016940Y002745D01*
X016982Y002704D01*
X016982Y002662D01*
X016940Y002620D01*
X016982Y002578D01*
X016982Y002537D01*
X016940Y002495D01*
X016856Y002495D01*
X016815Y002537D01*
X016705Y002495D02*
X016539Y002495D01*
X016898Y002620D02*
X016940Y002620D01*
X017192Y001896D02*
X017234Y001896D01*
X017276Y001854D01*
X017276Y001770D01*
X017234Y001729D01*
X017192Y001729D01*
X017151Y001770D01*
X017151Y001854D01*
X017192Y001896D01*
X017276Y001854D02*
X017318Y001896D01*
X017359Y001896D01*
X017401Y001854D01*
X017401Y001770D01*
X017359Y001729D01*
X017318Y001729D01*
X017276Y001770D01*
X017401Y001619D02*
X017401Y001453D01*
X017401Y001536D02*
X017151Y001536D01*
X017234Y001453D01*
X017192Y001343D02*
X017276Y001343D01*
X017318Y001301D01*
X017318Y001176D01*
X017401Y001176D02*
X017151Y001176D01*
X017151Y001301D01*
X017192Y001343D01*
X017318Y001260D02*
X017401Y001343D01*
X019749Y002394D02*
X019790Y002352D01*
X019874Y002352D01*
X019915Y002394D01*
X019915Y002561D01*
X019874Y002603D01*
X019790Y002603D01*
X019749Y002561D01*
X019749Y002394D01*
X019832Y002436D02*
X019915Y002352D01*
X020025Y002394D02*
X020066Y002352D01*
X020150Y002352D01*
X020192Y002394D01*
X020192Y002436D01*
X020150Y002478D01*
X020108Y002478D01*
X020150Y002478D02*
X020192Y002519D01*
X020192Y002561D01*
X020150Y002603D01*
X020066Y002603D01*
X020025Y002561D01*
X020276Y002640D02*
X020276Y002340D01*
X020816Y002340D01*
X020816Y002380D01*
X021571Y002353D02*
X021612Y002311D01*
X021571Y002353D02*
X021571Y002436D01*
X021612Y002478D01*
X021654Y002478D01*
X021821Y002311D01*
X021821Y002478D01*
X021779Y002587D02*
X021821Y002629D01*
X021821Y002713D01*
X021779Y002754D01*
X021696Y002754D01*
X021654Y002713D01*
X021654Y002671D01*
X021696Y002587D01*
X021571Y002587D01*
X021571Y002754D01*
X021506Y003030D02*
X021206Y003030D01*
X021206Y003570D01*
X021246Y003570D01*
X021152Y003598D02*
X021152Y003514D01*
X021110Y003472D01*
X021026Y003472D01*
X020985Y003514D01*
X020985Y003598D02*
X021068Y003639D01*
X021110Y003639D01*
X021152Y003598D01*
X021152Y003723D02*
X020985Y003723D01*
X020985Y003598D01*
X020875Y003681D02*
X020875Y003514D01*
X020834Y003472D01*
X020750Y003472D01*
X020709Y003514D01*
X020709Y003681D01*
X020750Y003723D01*
X020834Y003723D01*
X020875Y003681D01*
X020792Y003556D02*
X020875Y003472D01*
X020816Y003340D02*
X020816Y003300D01*
X020816Y003340D02*
X020276Y003340D01*
X020276Y003040D01*
X019527Y003230D02*
X019386Y003410D01*
X019245Y003230D01*
X019527Y003230D01*
X019527Y003430D02*
X019245Y003430D01*
X019137Y003430D02*
X018855Y003430D01*
X018996Y003410D02*
X018855Y003230D01*
X019137Y003230D01*
X018996Y003410D01*
X019057Y003972D02*
X018807Y003972D01*
X018807Y004097D01*
X018849Y004139D01*
X019016Y004139D01*
X019057Y004097D01*
X019057Y003972D01*
X019187Y003972D02*
X019187Y004097D01*
X019229Y004139D01*
X019396Y004139D01*
X019437Y004097D01*
X019437Y003972D01*
X019187Y003972D01*
X019270Y004248D02*
X019187Y004332D01*
X019437Y004332D01*
X019437Y004415D02*
X019437Y004248D01*
X019057Y004248D02*
X019057Y004415D01*
X018890Y004415D02*
X018849Y004415D01*
X018807Y004373D01*
X018807Y004290D01*
X018849Y004248D01*
X018890Y004415D02*
X019057Y004248D01*
X018551Y004251D02*
X018551Y004418D01*
X018551Y004335D02*
X018301Y004335D01*
X018384Y004251D01*
X018342Y004142D02*
X018426Y004142D01*
X018468Y004100D01*
X018468Y003975D01*
X018551Y003975D02*
X018301Y003975D01*
X018301Y004100D01*
X018342Y004142D01*
X018468Y004058D02*
X018551Y004142D01*
X018426Y004527D02*
X018426Y004694D01*
X018551Y004653D02*
X018301Y004653D01*
X018426Y004527D01*
X019601Y004805D02*
X019601Y005055D01*
X019726Y005055D01*
X019768Y005014D01*
X019768Y004930D01*
X019726Y004888D01*
X019601Y004888D01*
X019684Y004888D02*
X019768Y004805D01*
X019877Y004805D02*
X020044Y004805D01*
X019961Y004805D02*
X019961Y005055D01*
X019877Y004972D01*
X020153Y004930D02*
X020153Y004847D01*
X020195Y004805D01*
X020279Y004805D01*
X020320Y004847D01*
X020320Y004888D01*
X020279Y004930D01*
X020153Y004930D01*
X020237Y005014D01*
X020320Y005055D01*
X020659Y004974D02*
X020700Y004932D01*
X020784Y004932D01*
X020825Y004974D01*
X020825Y005141D01*
X020784Y005183D01*
X020700Y005183D01*
X020659Y005141D01*
X020659Y004974D01*
X020742Y005016D02*
X020825Y004932D01*
X020935Y005058D02*
X021102Y005058D01*
X021196Y005000D02*
X021236Y005000D01*
X021196Y005000D02*
X021196Y005540D01*
X021496Y005540D01*
X021612Y005790D02*
X021612Y007010D01*
X019920Y007010D01*
X019920Y005790D01*
X021612Y005790D01*
X021896Y005540D02*
X022196Y005540D01*
X022196Y005000D01*
X022156Y005000D01*
X022049Y004605D02*
X021965Y004605D01*
X021923Y004564D01*
X021814Y004564D02*
X021772Y004605D01*
X021689Y004605D01*
X021647Y004564D01*
X021538Y004564D02*
X021538Y004480D01*
X021496Y004438D01*
X021371Y004438D01*
X021371Y004355D02*
X021371Y004605D01*
X021496Y004605D01*
X021538Y004564D01*
X021454Y004438D02*
X021538Y004355D01*
X021647Y004355D02*
X021814Y004522D01*
X021814Y004564D01*
X021923Y004355D02*
X022090Y004522D01*
X022090Y004564D01*
X022049Y004605D01*
X022090Y004355D02*
X021923Y004355D01*
X021814Y004355D02*
X021647Y004355D01*
X020582Y004164D02*
X020582Y003997D01*
X020540Y003955D01*
X020456Y003955D01*
X020415Y003997D01*
X020456Y004080D02*
X020582Y004080D01*
X020582Y004164D02*
X020540Y004205D01*
X020456Y004205D01*
X020415Y004164D01*
X020415Y004122D01*
X020456Y004080D01*
X020305Y003955D02*
X020139Y003955D01*
X020222Y003955D02*
X020222Y004205D01*
X020139Y004122D01*
X020029Y004164D02*
X020029Y004080D01*
X019987Y004038D01*
X019862Y004038D01*
X019862Y003955D02*
X019862Y004205D01*
X019987Y004205D01*
X020029Y004164D01*
X019946Y004038D02*
X020029Y003955D01*
X021060Y004932D02*
X021060Y005183D01*
X020935Y005058D01*
X019952Y005634D02*
X019785Y005467D01*
X019785Y005425D01*
X019675Y005425D02*
X019509Y005425D01*
X019592Y005425D02*
X019592Y005675D01*
X019509Y005592D01*
X019399Y005634D02*
X019399Y005550D01*
X019357Y005508D01*
X019232Y005508D01*
X019232Y005425D02*
X019232Y005675D01*
X019357Y005675D01*
X019399Y005634D01*
X019316Y005508D02*
X019399Y005425D01*
X019785Y005675D02*
X019952Y005675D01*
X019952Y005634D01*
X019283Y006124D02*
X019283Y006207D01*
X019283Y006166D02*
X019033Y006166D01*
X019033Y006207D02*
X019033Y006124D01*
X019075Y006308D02*
X019241Y006308D01*
X019283Y006350D01*
X019283Y006433D01*
X019241Y006475D01*
X019241Y006584D02*
X019283Y006626D01*
X019283Y006710D01*
X019241Y006751D01*
X019200Y006751D01*
X019158Y006710D01*
X019158Y006668D01*
X019158Y006710D02*
X019116Y006751D01*
X019075Y006751D01*
X019033Y006710D01*
X019033Y006626D01*
X019075Y006584D01*
X019075Y006475D02*
X019033Y006433D01*
X019033Y006350D01*
X019075Y006308D01*
X018531Y006123D02*
X018531Y006039D01*
X018489Y005997D01*
X018531Y005888D02*
X018531Y005721D01*
X018531Y005805D02*
X018281Y005805D01*
X018364Y005721D01*
X018322Y005612D02*
X018406Y005612D01*
X018448Y005570D01*
X018448Y005445D01*
X018531Y005445D02*
X018281Y005445D01*
X018281Y005570D01*
X018322Y005612D01*
X018448Y005528D02*
X018531Y005612D01*
X018322Y005997D02*
X018281Y006039D01*
X018281Y006123D01*
X018322Y006164D01*
X018364Y006164D01*
X018406Y006123D01*
X018448Y006164D01*
X018489Y006164D01*
X018531Y006123D01*
X018406Y006123D02*
X018406Y006081D01*
X016866Y006860D02*
X016866Y006900D01*
X016326Y006900D01*
X016326Y006600D01*
X016071Y006603D02*
X015821Y006603D01*
X015946Y006477D01*
X015946Y006644D01*
X015955Y006782D02*
X015872Y006866D01*
X015955Y006824D02*
X015914Y006782D01*
X015830Y006782D01*
X015789Y006824D01*
X015789Y006991D01*
X015830Y007033D01*
X015914Y007033D01*
X015955Y006991D01*
X015955Y006824D01*
X016065Y006824D02*
X016065Y006782D01*
X016065Y006824D02*
X016232Y006991D01*
X016232Y007033D01*
X016065Y007033D01*
X016502Y007045D02*
X016502Y007295D01*
X016627Y007295D01*
X016669Y007254D01*
X016669Y007170D01*
X016627Y007128D01*
X016502Y007128D01*
X016586Y007128D02*
X016669Y007045D01*
X016779Y007087D02*
X016820Y007045D01*
X016904Y007045D01*
X016945Y007087D01*
X016945Y007128D01*
X016904Y007170D01*
X016862Y007170D01*
X016904Y007170D02*
X016945Y007212D01*
X016945Y007254D01*
X016904Y007295D01*
X016820Y007295D01*
X016779Y007254D01*
X016856Y007370D02*
X016856Y007410D01*
X016856Y007370D02*
X016316Y007370D01*
X016316Y007670D01*
X016058Y007777D02*
X016017Y007735D01*
X015850Y007735D01*
X015808Y007777D01*
X015808Y007860D01*
X015850Y007902D01*
X016017Y007902D01*
X016058Y007860D01*
X016058Y007777D01*
X015975Y007818D02*
X016058Y007902D01*
X016017Y008011D02*
X016058Y008053D01*
X016058Y008136D01*
X016017Y008178D01*
X015850Y008178D01*
X015808Y008136D01*
X015808Y008053D01*
X015850Y008011D01*
X015892Y008011D01*
X015933Y008053D01*
X015933Y008178D01*
X016316Y008070D02*
X016316Y008370D01*
X016856Y008370D01*
X016856Y008330D01*
X017421Y008367D02*
X017546Y008367D01*
X017504Y008451D01*
X017504Y008493D01*
X017546Y008534D01*
X017629Y008534D01*
X017671Y008493D01*
X017671Y008409D01*
X017629Y008367D01*
X017671Y008258D02*
X017671Y008091D01*
X017671Y008175D02*
X017421Y008175D01*
X017504Y008091D01*
X017462Y007982D02*
X017546Y007982D01*
X017588Y007940D01*
X017588Y007815D01*
X017671Y007815D02*
X017421Y007815D01*
X017421Y007940D01*
X017462Y007982D01*
X017588Y007898D02*
X017671Y007982D01*
X017421Y008367D02*
X017421Y008534D01*
X018131Y008495D02*
X018131Y008620D01*
X018172Y008662D01*
X018256Y008662D01*
X018298Y008620D01*
X018298Y008495D01*
X018381Y008495D02*
X018131Y008495D01*
X018298Y008578D02*
X018381Y008662D01*
X018381Y008771D02*
X018214Y008938D01*
X018172Y008938D01*
X018131Y008896D01*
X018131Y008813D01*
X018172Y008771D01*
X018381Y008771D02*
X018381Y008938D01*
X018381Y009047D02*
X018339Y009047D01*
X018172Y009214D01*
X018131Y009214D01*
X018131Y009047D01*
X018016Y009200D02*
X018266Y009450D01*
X018516Y009200D01*
X019016Y009200D01*
X019266Y009450D01*
X019516Y009200D01*
X020016Y009200D01*
X020266Y009450D01*
X020516Y009200D01*
X021016Y009200D01*
X021266Y009450D01*
X021516Y009200D01*
X022016Y009200D01*
X022266Y009450D01*
X022266Y009950D01*
X022016Y010200D01*
X021516Y010200D01*
X021266Y009950D01*
X021016Y010200D01*
X020516Y010200D01*
X020266Y009950D01*
X020016Y010200D01*
X019516Y010200D01*
X019266Y009950D01*
X019016Y010200D01*
X018516Y010200D01*
X018266Y009950D01*
X018016Y010200D01*
X017516Y010200D01*
X017266Y009950D01*
X017016Y010200D01*
X016516Y010200D01*
X016266Y009950D01*
X016016Y010200D01*
X015516Y010200D01*
X015266Y009950D01*
X015016Y010200D01*
X014516Y010200D01*
X014266Y009950D01*
X014016Y010200D01*
X013516Y010200D01*
X013266Y009950D01*
X013016Y010200D01*
X012516Y010200D01*
X012266Y009950D01*
X012016Y010200D01*
X011516Y010200D01*
X011266Y009950D01*
X011016Y010200D01*
X010516Y010200D01*
X010266Y009950D01*
X010016Y010200D01*
X009516Y010200D01*
X009266Y009950D01*
X009016Y010200D01*
X008516Y010200D01*
X008266Y009950D01*
X008016Y010200D01*
X007516Y010200D01*
X007266Y009950D01*
X007016Y010200D01*
X006516Y010200D01*
X006266Y009950D01*
X006016Y010200D01*
X005516Y010200D01*
X005266Y009950D01*
X005016Y010200D01*
X004516Y010200D01*
X004266Y009950D01*
X004016Y010200D01*
X003516Y010200D01*
X003266Y009950D01*
X003016Y010200D01*
X002516Y010200D01*
X002266Y009950D01*
X002016Y010200D01*
X001516Y010200D01*
X001266Y009950D01*
X001016Y010200D01*
X000516Y010200D01*
X000266Y009950D01*
X000266Y009450D01*
X000516Y009200D01*
X001016Y009200D01*
X001266Y009450D01*
X001516Y009200D01*
X002016Y009200D01*
X002266Y009450D01*
X002516Y009200D01*
X003016Y009200D01*
X003266Y009450D01*
X003516Y009200D01*
X004016Y009200D01*
X004266Y009450D01*
X004516Y009200D01*
X005016Y009200D01*
X005266Y009450D01*
X005516Y009200D01*
X006016Y009200D01*
X006266Y009450D01*
X006516Y009200D01*
X007016Y009200D01*
X007266Y009450D01*
X007516Y009200D01*
X008016Y009200D01*
X008266Y009450D01*
X008516Y009200D01*
X009016Y009200D01*
X009266Y009450D01*
X009516Y009200D01*
X010016Y009200D01*
X010266Y009450D01*
X010516Y009200D01*
X011016Y009200D01*
X011266Y009450D01*
X011516Y009200D01*
X012016Y009200D01*
X012266Y009450D01*
X012516Y009200D01*
X013016Y009200D01*
X013266Y009450D01*
X013516Y009200D01*
X014016Y009200D01*
X014266Y009450D01*
X014516Y009200D01*
X015016Y009200D01*
X015266Y009450D01*
X015516Y009200D01*
X016016Y009200D01*
X016266Y009450D01*
X016516Y009200D01*
X017016Y009200D01*
X017266Y009450D01*
X017516Y009200D01*
X018016Y009200D01*
X019071Y008966D02*
X019071Y008799D01*
X019113Y008758D01*
X019196Y008758D01*
X019238Y008799D01*
X019238Y008966D01*
X019196Y009008D01*
X019113Y009008D01*
X019071Y008966D01*
X019154Y008841D02*
X019238Y008758D01*
X019347Y008799D02*
X019389Y008758D01*
X019472Y008758D01*
X019514Y008799D01*
X019514Y008841D01*
X019472Y008883D01*
X019347Y008883D01*
X019347Y008799D01*
X019347Y008883D02*
X019431Y008966D01*
X019514Y009008D01*
X019616Y008490D02*
X019916Y008490D01*
X019916Y007950D01*
X019876Y007950D01*
X020011Y007900D02*
X020052Y007942D01*
X020136Y007942D01*
X020178Y007900D01*
X020178Y007775D01*
X020261Y007775D02*
X020011Y007775D01*
X020011Y007900D01*
X020178Y007858D02*
X020261Y007942D01*
X020261Y008051D02*
X020094Y008218D01*
X020052Y008218D01*
X020011Y008176D01*
X020011Y008093D01*
X020052Y008051D01*
X020261Y008051D02*
X020261Y008218D01*
X020219Y008327D02*
X020261Y008369D01*
X020261Y008453D01*
X020219Y008494D01*
X020178Y008494D01*
X020136Y008453D01*
X020136Y008327D01*
X020219Y008327D01*
X020136Y008327D02*
X020052Y008411D01*
X020011Y008494D01*
X019216Y008490D02*
X018916Y008490D01*
X018916Y007950D01*
X018956Y007950D01*
X018923Y007599D02*
X018881Y007599D01*
X018840Y007557D01*
X018840Y007432D01*
X018923Y007432D01*
X018965Y007474D01*
X018965Y007557D01*
X018923Y007599D01*
X018756Y007515D02*
X018840Y007432D01*
X018756Y007515D02*
X018714Y007599D01*
X018657Y007480D02*
X018375Y007480D01*
X018516Y007460D02*
X018375Y007280D01*
X018657Y007280D01*
X018516Y007460D01*
X018714Y007281D02*
X018714Y007156D01*
X018965Y007156D01*
X018965Y007281D01*
X018923Y007322D01*
X018756Y007322D01*
X018714Y007281D01*
X019237Y007328D02*
X019362Y007328D01*
X019320Y007412D01*
X019320Y007453D01*
X019362Y007495D01*
X019446Y007495D01*
X019487Y007453D01*
X019487Y007370D01*
X019446Y007328D01*
X019446Y007219D02*
X019279Y007219D01*
X019237Y007177D01*
X019237Y007052D01*
X019487Y007052D01*
X019487Y007177D01*
X019446Y007219D01*
X019237Y007328D02*
X019237Y007495D01*
X020016Y007391D02*
X020016Y007109D01*
X020036Y007250D02*
X020216Y007391D01*
X020216Y007109D01*
X020036Y007250D01*
X020805Y007600D02*
X020946Y007780D01*
X021087Y007600D01*
X020805Y007600D01*
X020805Y007800D02*
X021087Y007800D01*
X021350Y007325D02*
X021309Y007284D01*
X021309Y007117D01*
X021350Y007075D01*
X021434Y007075D01*
X021475Y007117D01*
X021585Y007117D02*
X021626Y007075D01*
X021710Y007075D01*
X021752Y007117D01*
X021752Y007158D01*
X021710Y007200D01*
X021585Y007200D01*
X021585Y007117D01*
X021585Y007200D02*
X021668Y007284D01*
X021752Y007325D01*
X021475Y007284D02*
X021434Y007325D01*
X021350Y007325D01*
X017222Y007254D02*
X017180Y007295D01*
X017096Y007295D01*
X017055Y007254D01*
X017222Y007254D02*
X017222Y007212D01*
X017055Y007045D01*
X017222Y007045D01*
X015383Y008286D02*
X015216Y008286D01*
X015299Y008286D02*
X015299Y008536D01*
X015216Y008452D01*
X015107Y008452D02*
X015065Y008411D01*
X015107Y008369D01*
X015107Y008327D01*
X015065Y008286D01*
X014982Y008286D01*
X014940Y008327D01*
X014830Y008286D02*
X014747Y008369D01*
X014789Y008369D02*
X014664Y008369D01*
X014664Y008286D02*
X014664Y008536D01*
X014789Y008536D01*
X014830Y008494D01*
X014830Y008411D01*
X014789Y008369D01*
X014940Y008494D02*
X014982Y008536D01*
X015065Y008536D01*
X015107Y008494D01*
X015107Y008452D01*
X015065Y008411D02*
X015023Y008411D01*
X012958Y004745D02*
X012958Y004495D01*
X012875Y004495D02*
X013042Y004495D01*
X012875Y004662D02*
X012958Y004745D01*
X012765Y004620D02*
X012599Y004620D01*
X012724Y004745D01*
X012724Y004495D01*
X012489Y004495D02*
X012406Y004578D01*
X012447Y004578D02*
X012322Y004578D01*
X012322Y004495D02*
X012322Y004745D01*
X012447Y004745D01*
X012489Y004704D01*
X012489Y004620D01*
X012447Y004578D01*
X015061Y004014D02*
X015102Y003931D01*
X015186Y003847D01*
X015186Y003973D01*
X015228Y004014D01*
X015269Y004014D01*
X015311Y003973D01*
X015311Y003889D01*
X015269Y003847D01*
X015186Y003847D01*
X015228Y003738D02*
X015269Y003738D01*
X015311Y003696D01*
X015311Y003613D01*
X015269Y003571D01*
X015311Y003462D02*
X015228Y003378D01*
X015228Y003420D02*
X015228Y003295D01*
X015311Y003295D02*
X015061Y003295D01*
X015061Y003420D01*
X015102Y003462D01*
X015186Y003462D01*
X015228Y003420D01*
X015102Y003571D02*
X015061Y003613D01*
X015061Y003696D01*
X015102Y003738D01*
X015144Y003738D01*
X015186Y003696D01*
X015228Y003738D01*
X015186Y003696D02*
X015186Y003655D01*
X013180Y002574D02*
X013139Y002615D01*
X013055Y002615D01*
X013013Y002574D01*
X012904Y002490D02*
X012737Y002490D01*
X012862Y002615D01*
X012862Y002365D01*
X013013Y002365D02*
X013180Y002532D01*
X013180Y002574D01*
X013180Y002365D02*
X013013Y002365D01*
X012628Y002365D02*
X012544Y002448D01*
X012586Y002448D02*
X012461Y002448D01*
X012461Y002365D02*
X012461Y002615D01*
X012586Y002615D01*
X012628Y002574D01*
X012628Y002490D01*
X012586Y002448D01*
X011844Y002624D02*
X011677Y002457D01*
X011677Y002415D01*
X011568Y002457D02*
X011526Y002415D01*
X011443Y002415D01*
X011401Y002457D01*
X011401Y002624D01*
X011443Y002665D01*
X011526Y002665D01*
X011568Y002624D01*
X011677Y002665D02*
X011844Y002665D01*
X011844Y002624D01*
X010780Y002575D02*
X010780Y002534D01*
X010613Y002367D01*
X010613Y002325D01*
X010504Y002367D02*
X010504Y002408D01*
X010462Y002450D01*
X010421Y002450D01*
X010462Y002450D02*
X010504Y002492D01*
X010504Y002534D01*
X010462Y002575D01*
X010379Y002575D01*
X010337Y002534D01*
X010228Y002534D02*
X010228Y002450D01*
X010186Y002408D01*
X010061Y002408D01*
X010061Y002325D02*
X010061Y002575D01*
X010186Y002575D01*
X010228Y002534D01*
X010144Y002408D02*
X010228Y002325D01*
X010337Y002367D02*
X010379Y002325D01*
X010462Y002325D01*
X010504Y002367D01*
X010613Y002575D02*
X010780Y002575D01*
X021141Y001853D02*
X021182Y001894D01*
X021224Y001894D01*
X021266Y001853D01*
X021266Y001769D01*
X021224Y001727D01*
X021182Y001727D01*
X021141Y001769D01*
X021141Y001853D01*
X021266Y001853D02*
X021308Y001894D01*
X021349Y001894D01*
X021391Y001853D01*
X021391Y001769D01*
X021349Y001727D01*
X021308Y001727D01*
X021266Y001769D01*
X021224Y001618D02*
X021182Y001618D01*
X021141Y001576D01*
X021141Y001493D01*
X021182Y001451D01*
X021182Y001342D02*
X021266Y001342D01*
X021308Y001300D01*
X021308Y001175D01*
X021391Y001175D02*
X021141Y001175D01*
X021141Y001300D01*
X021182Y001342D01*
X021308Y001258D02*
X021391Y001342D01*
X021391Y001451D02*
X021224Y001618D01*
X021391Y001618D02*
X021391Y001451D01*
X021571Y002035D02*
X021571Y002160D01*
X021612Y002202D01*
X021696Y002202D01*
X021738Y002160D01*
X021738Y002035D01*
X021821Y002035D02*
X021571Y002035D01*
X021738Y002118D02*
X021821Y002202D01*
X021906Y003030D02*
X022206Y003030D01*
X022206Y003570D01*
X022166Y003570D01*
D15*
X017927Y003431D03*
X017925Y003687D03*
X017926Y003945D03*
X017926Y004200D03*
X017929Y004457D03*
X017926Y004712D03*
X017927Y004969D03*
X015786Y004969D03*
X015786Y004713D03*
X015793Y004457D03*
X015789Y004198D03*
X015787Y003944D03*
X015788Y003687D03*
X015788Y003432D03*
D16*
X014906Y003215D02*
X014626Y003215D01*
X014626Y002880D02*
X014906Y002880D01*
X014906Y002750D02*
X014626Y002750D01*
X014626Y002415D02*
X014906Y002415D01*
X015401Y002540D02*
X015401Y002260D01*
X015736Y002260D02*
X015736Y002540D01*
X017376Y002455D02*
X017656Y002455D01*
X017656Y002300D02*
X017376Y002300D01*
X017376Y001965D02*
X017656Y001965D01*
X017656Y002790D02*
X017376Y002790D01*
X018451Y003290D02*
X018451Y003570D01*
X018786Y003570D02*
X018786Y003290D01*
X020646Y004110D02*
X020646Y004390D01*
X020981Y004390D02*
X020981Y004110D01*
X021576Y003960D02*
X021856Y003960D01*
X021856Y004295D02*
X021576Y004295D01*
X020206Y004380D02*
X019926Y004380D01*
X019926Y004715D02*
X020206Y004715D01*
X020376Y005340D02*
X020656Y005340D01*
X020656Y005675D02*
X020376Y005675D01*
X018186Y005660D02*
X018186Y005940D01*
X017851Y005940D02*
X017851Y005660D01*
X017631Y005660D02*
X017631Y005940D01*
X017296Y005940D02*
X017296Y005660D01*
X015836Y005720D02*
X015556Y005720D01*
X014816Y005600D02*
X014536Y005600D01*
X014536Y005265D02*
X014816Y005265D01*
X015556Y005385D02*
X015836Y005385D01*
X014646Y004840D02*
X014366Y004840D01*
X014366Y004505D02*
X014646Y004505D01*
X014376Y004070D02*
X014376Y003790D01*
X014041Y003790D02*
X014041Y004070D01*
X012816Y004815D02*
X012536Y004815D01*
X012536Y005150D02*
X012816Y005150D01*
X010036Y005410D02*
X010036Y005690D01*
X009701Y005690D02*
X009701Y005410D01*
X008936Y005090D02*
X008936Y004810D01*
X008601Y004810D02*
X008601Y005090D01*
X007686Y006160D02*
X007686Y006440D01*
X007351Y006440D02*
X007351Y006160D01*
X007186Y006160D02*
X007186Y006440D01*
X006851Y006440D02*
X006851Y006160D01*
X005676Y005765D02*
X005396Y005765D01*
X005396Y005430D02*
X005676Y005430D01*
X004586Y005540D02*
X004306Y005540D01*
X004306Y005205D02*
X004586Y005205D01*
X004586Y004690D02*
X004306Y004690D01*
X004306Y004355D02*
X004586Y004355D01*
X005751Y003890D02*
X005751Y003610D01*
X006086Y003610D02*
X006086Y003890D01*
X007626Y002620D02*
X007906Y002620D01*
X007906Y002285D02*
X007626Y002285D01*
X007626Y001970D02*
X007906Y001970D01*
X007906Y001635D02*
X007626Y001635D01*
X008996Y001660D02*
X008996Y001940D01*
X009331Y001940D02*
X009331Y001660D01*
X010101Y001650D02*
X010101Y001930D01*
X010436Y001930D02*
X010436Y001650D01*
X011426Y001980D02*
X011706Y001980D01*
X011706Y002315D02*
X011426Y002315D01*
X012536Y002300D02*
X012816Y002300D01*
X012816Y001965D02*
X012536Y001965D01*
X020756Y001940D02*
X021036Y001940D01*
X021036Y002275D02*
X020756Y002275D01*
X021896Y002350D02*
X021896Y002070D01*
X022231Y002070D02*
X022231Y002350D01*
X017631Y007140D02*
X017631Y007420D01*
X017746Y007320D02*
X017746Y007600D01*
X018081Y007600D02*
X018081Y007320D01*
X017296Y007420D02*
X017296Y007140D01*
X018076Y008050D02*
X018356Y008050D01*
X018356Y008385D02*
X018076Y008385D01*
X020351Y008140D02*
X020351Y007860D01*
X020686Y007860D02*
X020686Y008140D01*
X021556Y007740D02*
X021836Y007740D01*
X021836Y007405D02*
X021556Y007405D01*
X011786Y007360D02*
X011786Y007080D01*
X011451Y007080D02*
X011451Y007360D01*
X011031Y007610D02*
X011031Y007890D01*
X010696Y007890D02*
X010696Y007610D01*
X010531Y007610D02*
X010531Y007890D01*
X010196Y007890D02*
X010196Y007610D01*
X010526Y007040D02*
X010806Y007040D01*
X010806Y006705D02*
X010526Y006705D01*
X007681Y007180D02*
X007681Y007460D01*
X007346Y007460D02*
X007346Y007180D01*
X006856Y007030D02*
X006576Y007030D01*
X006576Y007365D02*
X006856Y007365D01*
X004576Y006755D02*
X004296Y006755D01*
X004296Y006420D02*
X004576Y006420D01*
X000916Y006260D02*
X000916Y005980D01*
X000581Y005980D02*
X000581Y006260D01*
X000526Y004180D02*
X000526Y003900D01*
X000861Y003900D02*
X000861Y004180D01*
D17*
X004214Y004522D03*
X004674Y004522D03*
X004674Y005372D03*
X004214Y005372D03*
X005308Y005598D03*
X005768Y005598D03*
X004668Y006588D03*
X004208Y006588D03*
X006488Y007198D03*
X006948Y007198D03*
X010434Y006872D03*
X010894Y006872D03*
X014444Y005432D03*
X014904Y005432D03*
X015464Y005552D03*
X015924Y005552D03*
X014734Y004672D03*
X014274Y004672D03*
X012904Y004982D03*
X012444Y004982D03*
X014538Y003048D03*
X014998Y003048D03*
X014994Y002582D03*
X014534Y002582D03*
X012904Y002132D03*
X012444Y002132D03*
X011798Y002148D03*
X011338Y002148D03*
X007994Y002452D03*
X007534Y002452D03*
X007534Y001802D03*
X007994Y001802D03*
X017284Y002132D03*
X017744Y002132D03*
X017744Y002622D03*
X017284Y002622D03*
X020668Y002108D03*
X021128Y002108D03*
X021488Y004128D03*
X021948Y004128D03*
X020298Y004548D03*
X019838Y004548D03*
X020288Y005508D03*
X020748Y005508D03*
X021464Y007572D03*
X021924Y007572D03*
X018448Y008218D03*
X017988Y008218D03*
D18*
X017914Y007688D03*
X017464Y007508D03*
X017914Y007228D03*
X017464Y007048D03*
X017464Y006028D03*
X018018Y006032D03*
X018018Y005572D03*
X017464Y005568D03*
X020814Y004478D03*
X020814Y004018D03*
X018618Y003662D03*
X018618Y003202D03*
X015568Y002632D03*
X015568Y002172D03*
X014208Y003702D03*
X014208Y004162D03*
X009868Y005322D03*
X009868Y005782D03*
X008768Y005182D03*
X008768Y004722D03*
X005918Y003982D03*
X005918Y003522D03*
X009164Y002028D03*
X009164Y001568D03*
X010268Y001562D03*
X010268Y002022D03*
X007518Y006072D03*
X007018Y006072D03*
X007018Y006532D03*
X007518Y006532D03*
X007514Y007088D03*
X007514Y007548D03*
X010364Y007518D03*
X010864Y007518D03*
X011618Y007452D03*
X011618Y006992D03*
X010864Y007978D03*
X010364Y007978D03*
X000748Y006352D03*
X000748Y005892D03*
X000694Y004268D03*
X000694Y003808D03*
X020518Y007772D03*
X020518Y008232D03*
X022064Y002438D03*
X022064Y001978D03*
D19*
X011866Y003305D03*
X011366Y003315D03*
X010866Y003305D03*
X010366Y003305D03*
X008016Y003255D03*
X007516Y003265D03*
X007016Y003255D03*
X006516Y003255D03*
X006516Y005245D03*
X007016Y005245D03*
X007516Y005245D03*
X008016Y005245D03*
X010366Y005295D03*
X010866Y005295D03*
X011366Y005295D03*
X011866Y005295D03*
D20*
X003431Y005370D03*
X003441Y004870D03*
X003441Y004370D03*
X001451Y004370D03*
X001451Y004870D03*
X001451Y005370D03*
X001451Y005870D03*
X003441Y005870D03*
D21*
X002961Y006570D03*
X002331Y006570D03*
D22*
X014651Y006857D02*
X015281Y006857D01*
X015281Y007243D02*
X014651Y007243D01*
X014651Y008157D02*
X015281Y008157D01*
X015281Y005943D02*
X014651Y005943D01*
D23*
X020086Y006780D03*
D24*
X019703Y006784D03*
X019703Y006528D03*
X019703Y006272D03*
X019703Y006016D03*
X021829Y006016D03*
X021829Y006272D03*
X021829Y006528D03*
X021829Y006784D03*
M02*
